<?xml version="1.0" encoding="utf-8"?>
<!-- Generator: Adobe Illustrator 23.1.0, SVG Export Plug-In . SVG Version: 6.00 Build 0)  -->
<svg version="1.1" xmlns="http://www.w3.org/2000/svg" xmlns:xlink="http://www.w3.org/1999/xlink" x="0px" y="0px"
	 viewBox="0 0 2000 2000" style="enable-background:new 0 0 2000 2000;" xml:space="preserve">
<g id="Слой_1">
	<g>
		<rect style="fill:#587267;" width="2000" height="2000"/>
	</g>
</g>
<g id="Слой_2">
	<g id="Icons1">
		<g id="Strike">
		</g>
		<g id="H1">
		</g>
		<g id="H2">
		</g>
		<g id="H3">
		</g>
		<g id="list-ul">
		</g>
		<g id="hamburger-1">
		</g>
		<g id="hamburger-2">
		</g>
		<g id="list-ol">
		</g>
		<g id="list-task">
		</g>
		<g id="trash">
		</g>
		<g id="vertical-menu">
		</g>
		<g id="horizontal-menu">
		</g>
		<g id="sidebar-2">
		</g>
		<g id="Pen">
		</g>
		<g id="Pen1">
		</g>
		<g id="clock">
		</g>
		<g id="external-link">
		</g>
		<g id="hr">
		</g>
		<g id="info">
		</g>
		<g id="warning">
		</g>
		<g id="plus-circle">
		</g>
		<g id="minus-circle">
		</g>
		<g id="vue">
		</g>
		<g id="cog">
		</g>
		<g id="logo">
		</g>
		<g id="radio-check">
		</g>
		<g id="eye-slash">
		</g>
		<g id="eye">
		</g>
		<g id="toggle-off">
		</g>
		<g id="shredder">
		</g>
		<g id="spinner--loading--dots-">
		</g>
		<g id="react">
		</g>
		<g id="check-selected">
		</g>
		<g id="turn-off">
		</g>
		<g id="code-block">
		</g>
		<g id="user">
		</g>
		<g id="coffee-bean">
		</g>
		<g transform="matrix(0.638317,0.368532,-0.368532,0.638317,785.021,-208.975)">
			<g id="coffee-beans">
				<g id="coffee-bean1">
				</g>
			</g>
		</g>
		<g id="coffee-bean-filled" transform="matrix(0.866025,0.5,-0.5,0.866025,717.879,-387.292)">
			<g transform="matrix(1,0,0,1,0,-0.699553)">
				<path style="fill-rule:evenodd;clip-rule:evenodd;fill:#3B4F45;" d="M79.7134247,1064.3085938
					c3.0155258-0.34375,5.9089966,1.2838135,7.1788254,4.0400391c0.6041946,1.1882324,1.0573959,2.1727295,1.0573959,2.1727295
					s15.2673721,33.6558838-10.4671097,82.7473145c-10.4686508,19.9703369-15.2012291,46.8416748-10.1580887,67.6557617
					c0.6827545,2.7794189-0.3807831,5.6986084-2.6942444,7.3852539c-2.3136864,1.6866455-5.4162903,1.8077393-7.8570595,0.303833
					c-19.0057487-11.6536865-46.1845055-37.2290039-41.6621857-84.2215576
					C19.1898327,1102.0203857,47.1134224,1068.5925293,79.7134247,1064.3085938z"/>
			</g>
			<g transform="matrix(-1,0,0,-1,1483.03,703.293)">
				<path style="fill-rule:evenodd;clip-rule:evenodd;fill:#3B4F45;" d="M1391.9825439-534.0023193
					c3.1451416-0.3712769,6.1737061,1.3239746,7.4970703,4.2015991c0.5656738,1.097168,0.9744873,1.9794312,0.9744873,1.9794312
					s15.267334,33.6558228-10.467041,82.7472534c-10.375,19.7906189-15.1147461,46.3596802-10.2923584,67.0908508
					c0.6759033,2.8875732-0.4549561,5.901947-2.8701172,7.6260376c-2.4156494,1.7276611-5.6324463,1.8267212-8.1459961,0.2505188
					c-18.9790039-11.8182678-45.5374756-37.348053-41.0631104-83.8440247
					C1331.6877441-496.2175598,1359.4820557-529.5852661,1391.9825439-534.0023193z"/>
			</g>
		</g>
		<g transform="matrix(0.638317,0.368532,-0.368532,0.638317,913.062,-208.975)">
			<g id="coffee-beans-filled">
				<g id="coffee-bean2">
				</g>
			</g>
		</g>
		<g id="clipboard">
		</g>
		<g transform="matrix(1,0,0,1,128.011,1.35415)">
			<g id="clipboard-paste">
			</g>
		</g>
		<g id="clipboard-copy">
		</g>
		<g id="Layer1">
		</g>
	</g>
	<g id="Icons1_1_">
		<g id="Strike_1_">
		</g>
		<g id="H1_1_">
		</g>
		<g id="H2_1_">
		</g>
		<g id="H3_1_">
		</g>
		<g id="list-ul_1_">
		</g>
		<g id="hamburger-1_1_">
		</g>
		<g id="hamburger-2_1_">
		</g>
		<g id="list-ol_1_">
		</g>
		<g id="list-task_1_">
		</g>
		<g id="trash_1_">
		</g>
		<g id="vertical-menu_1_">
		</g>
		<g id="horizontal-menu_1_">
		</g>
		<g id="sidebar-2_1_">
		</g>
		<g id="Pen_1_">
		</g>
		<g id="Pen1_1_">
		</g>
		<g id="clock_1_">
		</g>
		<g id="external-link_1_">
		</g>
		<g id="hr_1_">
		</g>
		<g id="info_1_">
		</g>
		<g id="warning_1_">
		</g>
		<g id="plus-circle_1_">
		</g>
		<g id="minus-circle_1_">
		</g>
		<g id="vue_1_">
		</g>
		<g id="cog_1_">
		</g>
		<g id="logo_1_">
		</g>
		<g id="radio-check_1_">
		</g>
		<g id="eye-slash_1_">
		</g>
		<g id="eye_1_">
		</g>
		<g id="toggle-off_1_">
		</g>
		<g id="shredder_1_">
		</g>
		<g id="spinner--loading--dots-_1_">
		</g>
		<g id="react_1_">
		</g>
		<g id="check-selected_1_">
		</g>
		<g id="turn-off_1_">
		</g>
		<g id="code-block_1_">
		</g>
		<g id="user_1_">
		</g>
		<g id="coffee-bean_1_">
		</g>
		<g transform="matrix(0.638317,0.368532,-0.368532,0.638317,785.021,-208.975)">
			<g id="coffee-beans_1_">
				<g id="coffee-bean1_1_">
				</g>
			</g>
		</g>
		<g id="coffee-bean-filled_1_" transform="matrix(0.866025,0.5,-0.5,0.866025,717.879,-387.292)">
			<g transform="matrix(1,0,0,1,0,-0.699553)">
				<path style="fill-rule:evenodd;clip-rule:evenodd;fill:#3B4F45;" d="M1926.0992432,1289.8756104
					c1.4083252-2.6884766,4.3795166-4.1694336,7.3734131-3.6729736c1.3223877,0.1669922,2.3916016,0.3446045,2.3916016,0.3446045
					s36.4230957,6.2585449,62.6030273,55.1138916c10.6501465,19.8741455,30.2312012,38.8753662,50.2873535,46.3862305
					c2.6833496,0.9952393,4.5021973,3.5140381,4.5993652,6.3754883c0.0969238,2.8615723-1.5446777,5.4971924-4.1594238,6.6728516
					c-20.3133545,9.1865234-56.7358398,17.3216553-93.0866699-12.8010254
					C1923.3323975,1361.1331787,1911.3438721,1319.2591553,1926.0992432,1289.8756104z"/>
			</g>
			<g transform="matrix(-1,0,0,-1,1483.03,703.293)">
				<path style="fill-rule:evenodd;clip-rule:evenodd;fill:#3B4F45;" d="M-593.1688843-674.005127
					c1.4584351-2.8112793,4.5614624-4.3659668,7.68573-3.8456421c1.2255859,0.1477051,2.1851807,0.3046265,2.1851807,0.3046265
					s36.4230957,6.2585449,62.6030273,55.1138306c10.5538635,19.6958008,29.8808289,38.5332031,49.7443848,46.1801758
					c2.7690735,1.0617065,4.6288757,3.6896973,4.6999207,6.656189c0.0737,2.9689941-1.650177,5.6867065-4.3656311,6.8820801
					c-20.4345703,9.0719604-56.4711914,16.7192383-92.4380493-13.0848389
					C-595.7469482-602.8959961-607.7581177-644.6292114-593.1688843-674.005127z"/>
			</g>
		</g>
		<g transform="matrix(0.638317,0.368532,-0.368532,0.638317,913.062,-208.975)">
			<g id="coffee-beans-filled_1_">
				<g id="coffee-bean2_1_">
				</g>
			</g>
		</g>
		<g id="clipboard_1_">
		</g>
		<g transform="matrix(1,0,0,1,128.011,1.35415)">
			<g id="clipboard-paste_1_">
			</g>
		</g>
		<g id="clipboard-copy_1_">
		</g>
		<g id="Layer1_1_">
		</g>
	</g>
	<g id="Icons1_2_">
		<g id="Strike_2_">
		</g>
		<g id="H1_2_">
		</g>
		<g id="H2_2_">
		</g>
		<g id="H3_2_">
		</g>
		<g id="list-ul_2_">
		</g>
		<g id="hamburger-1_2_">
		</g>
		<g id="hamburger-2_2_">
		</g>
		<g id="list-ol_2_">
		</g>
		<g id="list-task_2_">
		</g>
		<g id="trash_2_">
		</g>
		<g id="vertical-menu_2_">
		</g>
		<g id="horizontal-menu_2_">
		</g>
		<g id="sidebar-2_2_">
		</g>
		<g id="Pen_2_">
		</g>
		<g id="Pen1_2_">
		</g>
		<g id="clock_2_">
		</g>
		<g id="external-link_2_">
		</g>
		<g id="hr_2_">
		</g>
		<g id="info_2_">
		</g>
		<g id="warning_2_">
		</g>
		<g id="plus-circle_2_">
		</g>
		<g id="minus-circle_2_">
		</g>
		<g id="vue_2_">
		</g>
		<g id="cog_2_">
		</g>
		<g id="logo_2_">
		</g>
		<g id="radio-check_2_">
		</g>
		<g id="eye-slash_2_">
		</g>
		<g id="eye_2_">
		</g>
		<g id="toggle-off_2_">
		</g>
		<g id="shredder_2_">
		</g>
		<g id="spinner--loading--dots-_2_">
		</g>
		<g id="react_2_">
		</g>
		<g id="check-selected_2_">
		</g>
		<g id="turn-off_2_">
		</g>
		<g id="code-block_2_">
		</g>
		<g id="user_2_">
		</g>
		<g id="coffee-bean_2_">
		</g>
		<g transform="matrix(0.638317,0.368532,-0.368532,0.638317,785.021,-208.975)">
			<g id="coffee-beans_2_">
				<g id="coffee-bean1_2_">
				</g>
			</g>
		</g>
		<g id="coffee-bean-filled_2_" transform="matrix(0.866025,0.5,-0.5,0.866025,717.879,-387.292)">
			<g transform="matrix(1,0,0,1,0,-0.699553)">
				<path style="fill-rule:evenodd;clip-rule:evenodd;fill:#3B4F45;" d="M1203.1999512,27.5583973
					c2.6584473-1.4643536,5.9534912-1.0589466,8.1757813,1.0076733c1.010498,0.8692265,1.8039551,1.6075344,1.8039551,1.6075344
					s26.9158936,25.324831,21.7763672,80.5137558c-2.0906982,22.4508209,3.7475586,49.1037292,16.3248291,66.4379272
					c1.6882324,2.3111725,1.814209,5.4154358,0.3156738,7.8549805c-1.4987793,2.439621-4.3223877,3.7310944-7.1516113,3.2680359
					c-22.0091553-3.5534363-56.8699951-16.8761139-70.552124-62.0596771
					C1161.557251,85.4477234,1174.6762695,43.9140701,1203.1999512,27.5583973z"/>
			</g>
			<g transform="matrix(-1,0,0,-1,1483.03,703.293)">
				<path style="fill-rule:evenodd;clip-rule:evenodd;fill:#3B4F45;" d="M203.3175812,520.097168
					c2.7679443-1.5390625,6.2135925-1.1224976,8.5314941,1.0360718c0.9403992,0.7996826,1.6538849,1.4602661,1.6538849,1.4602661
					s26.9158325,25.3248291,21.7763062,80.5137939c-2.0723419,22.2488403,3.6444397,48.624939,15.9859924,65.9663086
					c1.7228546,2.4138794,1.822876,5.6318359,0.2445526,8.1445923c-1.5774689,2.5162964-4.515152,3.8308105-7.4392242,3.3285522
					c-22.0468903-3.7158203-56.3167877-17.2322388-69.8545532-61.9382324
					C161.9142151,577.9669189,174.9364777,536.538147,203.3175812,520.097168z"/>
			</g>
		</g>
		<g transform="matrix(0.638317,0.368532,-0.368532,0.638317,913.062,-208.975)">
			<g id="coffee-beans-filled_2_">
				<g id="coffee-bean2_2_">
				</g>
			</g>
		</g>
		<g id="clipboard_2_">
		</g>
		<g transform="matrix(1,0,0,1,128.011,1.35415)">
			<g id="clipboard-paste_2_">
			</g>
		</g>
		<g id="clipboard-copy_2_">
		</g>
		<g id="Layer1_2_">
		</g>
	</g>
	<g id="Icons1_3_">
		<g id="Strike_3_">
		</g>
		<g id="H1_3_">
		</g>
		<g id="H2_3_">
		</g>
		<g id="H3_3_">
		</g>
		<g id="list-ul_3_">
		</g>
		<g id="hamburger-1_3_">
		</g>
		<g id="hamburger-2_3_">
		</g>
		<g id="list-ol_3_">
		</g>
		<g id="list-task_3_">
		</g>
		<g id="trash_3_">
		</g>
		<g id="vertical-menu_3_">
		</g>
		<g id="horizontal-menu_3_">
		</g>
		<g id="sidebar-2_3_">
		</g>
		<g id="Pen_3_">
		</g>
		<g id="Pen1_3_">
		</g>
		<g id="clock_3_">
		</g>
		<g id="external-link_3_">
		</g>
		<g id="hr_3_">
		</g>
		<g id="info_3_">
		</g>
		<g id="warning_3_">
		</g>
		<g id="plus-circle_3_">
		</g>
		<g id="minus-circle_3_">
		</g>
		<g id="vue_3_">
		</g>
		<g id="cog_3_">
		</g>
		<g id="logo_3_">
		</g>
		<g id="radio-check_3_">
		</g>
		<g id="eye-slash_3_">
		</g>
		<g id="eye_3_">
		</g>
		<g id="toggle-off_3_">
		</g>
		<g id="shredder_3_">
		</g>
		<g id="spinner--loading--dots-_3_">
		</g>
		<g id="react_3_">
		</g>
		<g id="check-selected_3_">
		</g>
		<g id="turn-off_3_">
		</g>
		<g id="code-block_3_">
		</g>
		<g id="user_3_">
		</g>
		<g id="coffee-bean_3_">
		</g>
		<g transform="matrix(0.638317,0.368532,-0.368532,0.638317,785.021,-208.975)">
			<g id="coffee-beans_3_">
				<g id="coffee-bean1_3_">
				</g>
			</g>
		</g>
		<g id="coffee-bean-filled_3_" transform="matrix(0.866025,0.5,-0.5,0.866025,717.879,-387.292)">
			<g transform="matrix(1,0,0,1,0,-0.699553)">
				<path style="fill-rule:evenodd;clip-rule:evenodd;fill:#3B4F45;" d="M671.2677002,2037.9281006
					c1.6820679-2.5263672,4.7920532-3.6879883,7.7175293-2.8807373c1.2976685,0.3044434,2.3423462,0.5930176,2.3423462,0.5930176
					s35.5675659,10.0377197,56.4883423,61.3657227c8.5106201,20.880127,25.9945679,41.8269043,45.1541138,51.3964844
					c2.5644531,1.270752,4.1094971,3.9663086,3.9064941,6.8220215c-0.203125,2.855957-2.1115723,5.3051758-4.835022,6.2006836
					c-21.1636353,7.0090332-58.2377319,11.2858887-91.2348022-22.4770508
					C661.0551758,2108.5041504,653.5169678,2065.6052246,671.2677002,2037.9281006z"/>
			</g>
			<g transform="matrix(-1,0,0,-1,1483.03,703.293)">
				<path style="fill-rule:evenodd;clip-rule:evenodd;fill:#3B4F45;" d="M671.7142944-1437.2890625
					c1.744751-2.6431885,4.9935303-3.864502,8.0461426-3.0198975c1.2034302,0.2752686,2.1412964,0.5318604,2.1412964,0.5318604
					s35.5675659,10.0377197,56.4883423,61.3656006c8.4335938,20.6925049,25.6820068,41.4499512,44.6357422,51.1346436
					c2.6427002,1.3458252,4.2171021,4.1541748,3.9771118,7.1116943c-0.2375488,2.9604492-2.2365112,5.4827881-5.0621948,6.387207
					c-21.2720947,6.8825684-57.911377,10.7145996-90.5599365-22.6914063
					C661.7050781-1366.8408203,654.1294556-1409.6021729,671.7142944-1437.2890625z"/>
			</g>
		</g>
		<g transform="matrix(0.638317,0.368532,-0.368532,0.638317,913.062,-208.975)">
			<g id="coffee-beans-filled_3_">
				<g id="coffee-bean2_3_">
				</g>
			</g>
		</g>
		<g id="clipboard_3_">
		</g>
		<g transform="matrix(1,0,0,1,128.011,1.35415)">
			<g id="clipboard-paste_3_">
			</g>
		</g>
		<g id="clipboard-copy_3_">
		</g>
		<g id="Layer1_3_">
		</g>
	</g>
	<g id="Icons1_4_">
		<g id="Strike_4_">
		</g>
		<g id="H1_4_">
		</g>
		<g id="H2_4_">
		</g>
		<g id="H3_4_">
		</g>
		<g id="list-ul_4_">
		</g>
		<g id="hamburger-1_4_">
		</g>
		<g id="hamburger-2_4_">
		</g>
		<g id="list-ol_4_">
		</g>
		<g id="list-task_4_">
		</g>
		<g id="trash_4_">
		</g>
		<g id="vertical-menu_4_">
		</g>
		<g id="horizontal-menu_4_">
		</g>
		<g id="sidebar-2_4_">
		</g>
		<g id="Pen_4_">
		</g>
		<g id="Pen1_4_">
		</g>
		<g id="clock_4_">
		</g>
		<g id="external-link_4_">
		</g>
		<g id="hr_4_">
		</g>
		<g id="info_4_">
		</g>
		<g id="warning_4_">
		</g>
		<g id="plus-circle_4_">
		</g>
		<g id="minus-circle_4_">
		</g>
		<g id="vue_4_">
		</g>
		<g id="cog_4_">
		</g>
		<g id="logo_4_">
		</g>
		<g id="radio-check_4_">
		</g>
		<g id="eye-slash_4_">
		</g>
		<g id="eye_4_">
		</g>
		<g id="toggle-off_4_">
		</g>
		<g id="shredder_4_">
		</g>
		<g id="spinner--loading--dots-_4_">
		</g>
		<g id="react_4_">
		</g>
		<g id="check-selected_4_">
		</g>
		<g id="turn-off_4_">
		</g>
		<g id="code-block_4_">
		</g>
		<g id="user_4_">
		</g>
		<g id="coffee-bean_4_">
		</g>
		<g transform="matrix(0.638317,0.368532,-0.368532,0.638317,785.021,-208.975)">
			<g id="coffee-beans_4_">
				<g id="coffee-bean1_4_">
				</g>
			</g>
		</g>
		<g id="coffee-bean-filled_4_" transform="matrix(0.866025,0.5,-0.5,0.866025,717.879,-387.292)">
			<g transform="matrix(1,0,0,1,0,-0.699553)">
				<path style="fill-rule:evenodd;clip-rule:evenodd;fill:#3B4F45;" d="M749.8924561,1424.6787109
					c2.9785156-0.5830078,5.9925537,0.8087158,7.4780884,3.4550781c0.6969604,1.1361084,1.2272339,2.0814209,1.2272339,2.0814209
					s17.9017334,32.331665-3.8374023,83.3183594c-8.8433228,20.741333-11.4187012,47.9044189-4.7323608,68.2502441
					c0.9021606,2.7161865,0.074707,5.7108154-2.0969238,7.5765381c-2.171875,1.8657227-5.2549438,2.2337646-7.8078003,0.9291992
					c-19.8743286-10.1014404-49.0053711-33.4287109-48.2435913-80.6323242
					C692.5678101,1467.095459,717.7377319,1431.5478516,749.8924561,1424.6787109z"/>
			</g>
			<g transform="matrix(-1,0,0,-1,1483.03,703.293)">
				<path style="fill-rule:evenodd;clip-rule:evenodd;fill:#3B4F45;" d="M707.9935913-892.9161987
					c3.1055908-0.6207886,6.2597046,0.8275757,7.8081665,3.5905762c0.6514282,1.048584,1.1292114,1.8953857,1.1292114,1.8953857
					s17.9017944,32.331665-3.8373413,83.3183594c-8.7642822,20.5546875-11.3708496,47.4170532-4.9111938,67.6978149
					c0.9038696,2.8245239,0.0169678,5.9194336-2.2529907,7.8305664c-2.2702637,1.9147339-5.4689941,2.2698975-8.1002197,0.8991089
					c-19.8606567-10.2677002-48.369751-33.5990601-47.616272-80.3037109
					C650.902832-850.4451294,675.9486694-885.9223022,707.9935913-892.9161987z"/>
			</g>
		</g>
		<g transform="matrix(0.638317,0.368532,-0.368532,0.638317,913.062,-208.975)">
			<g id="coffee-beans-filled_4_">
				<g id="coffee-bean2_4_">
				</g>
			</g>
		</g>
		<g id="clipboard_4_">
		</g>
		<g transform="matrix(1,0,0,1,128.011,1.35415)">
			<g id="clipboard-paste_4_">
			</g>
		</g>
		<g id="clipboard-copy_4_">
		</g>
		<g id="Layer1_4_">
		</g>
	</g>
	<g id="Icons1_5_">
		<g id="Strike_5_">
		</g>
		<g id="H1_5_">
		</g>
		<g id="H2_5_">
		</g>
		<g id="H3_5_">
		</g>
		<g id="list-ul_5_">
		</g>
		<g id="hamburger-1_5_">
		</g>
		<g id="hamburger-2_5_">
		</g>
		<g id="list-ol_5_">
		</g>
		<g id="list-task_5_">
		</g>
		<g id="trash_5_">
		</g>
		<g id="vertical-menu_5_">
		</g>
		<g id="horizontal-menu_5_">
		</g>
		<g id="sidebar-2_5_">
		</g>
		<g id="Pen_5_">
		</g>
		<g id="Pen1_5_">
		</g>
		<g id="clock_5_">
		</g>
		<g id="external-link_5_">
		</g>
		<g id="hr_5_">
		</g>
		<g id="info_5_">
		</g>
		<g id="warning_5_">
		</g>
		<g id="plus-circle_5_">
		</g>
		<g id="minus-circle_5_">
		</g>
		<g id="vue_5_">
		</g>
		<g id="cog_5_">
		</g>
		<g id="logo_5_">
		</g>
		<g id="radio-check_5_">
		</g>
		<g id="eye-slash_5_">
		</g>
		<g id="eye_5_">
		</g>
		<g id="toggle-off_5_">
		</g>
		<g id="shredder_5_">
		</g>
		<g id="spinner--loading--dots-_5_">
		</g>
		<g id="react_5_">
		</g>
		<g id="check-selected_5_">
		</g>
		<g id="turn-off_5_">
		</g>
		<g id="code-block_5_">
		</g>
		<g id="user_5_">
		</g>
		<g id="coffee-bean_5_">
		</g>
		<g transform="matrix(0.638317,0.368532,-0.368532,0.638317,785.021,-208.975)">
			<g id="coffee-beans_5_">
				<g id="coffee-bean1_5_">
				</g>
			</g>
		</g>
		<g id="coffee-bean-filled_5_" transform="matrix(0.866025,0.5,-0.5,0.866025,717.879,-387.292)">
			<g transform="matrix(1,0,0,1,0,-0.699553)">
				<path style="fill-rule:evenodd;clip-rule:evenodd;fill:#3B4F45;" d="M769.6560669,728.8071289
					c1.1072998-2.8692017,4.1732788-4.7783813,7.6087646-4.7358398c1.5084229-0.032959,2.7353516-0.017395,2.7353516-0.017395
					s41.8340454,0.7338867,79.6259155,45.119751c15.3737793,18.0560913,40.5861206,33.911499,64.3295288,38.3345947
					c3.1750488,0.5822144,5.6480713,2.800415,6.2549438,5.6151123c0.6066895,2.8148804-0.7706909,5.666626-3.4909668,7.2206421
					c-21.1240845,12.1252441-60.4515991,25.6231079-106.3596191,1.2824707
					C778.9669189,799.6782227,758.2658081,760.0700684,769.6560669,728.8071289z"/>
			</g>
			<g transform="matrix(-1,0,0,-1,1483.03,703.293)">
				<path style="fill-rule:evenodd;clip-rule:evenodd;fill:#3B4F45;" d="M530.1236572-89.4691925
					c1.1419678-2.9980774,4.3425293-5.0000076,7.9281006-4.9533844c1.3966675-0.0374908,2.4974365-0.0259933,2.4974365-0.0259933
					s41.8341064,0.7338943,79.6259155,45.1198082c15.2351074,17.8940315,40.1347046,33.6255798,63.6862793,38.2120667
					c3.2824707,0.6351089,5.8204346,2.9550953,6.4163818,5.877594c0.5993652,2.9245665-0.855896,5.8699417-3.6854248,7.4584684
					c-21.279541,12.0300674-60.2603149,24.9878483-105.6833496,0.9046791
					C539.6199341-18.7731247,518.9178467-58.2386551,530.1236572-89.4691925z"/>
			</g>
		</g>
		<g transform="matrix(0.638317,0.368532,-0.368532,0.638317,913.062,-208.975)">
			<g id="coffee-beans-filled_5_">
				<g id="coffee-bean2_5_">
				</g>
			</g>
		</g>
		<g id="clipboard_5_">
		</g>
		<g transform="matrix(1,0,0,1,128.011,1.35415)">
			<g id="clipboard-paste_5_">
			</g>
		</g>
		<g id="clipboard-copy_5_">
		</g>
		<g id="Layer1_5_">
		</g>
	</g>
	<g id="Icons1_8_">
		<g id="Strike_8_">
		</g>
		<g id="H1_8_">
		</g>
		<g id="H2_8_">
		</g>
		<g id="H3_8_">
		</g>
		<g id="list-ul_8_">
		</g>
		<g id="hamburger-1_8_">
		</g>
		<g id="hamburger-2_8_">
		</g>
		<g id="list-ol_8_">
		</g>
		<g id="list-task_8_">
		</g>
		<g id="trash_8_">
		</g>
		<g id="vertical-menu_8_">
		</g>
		<g id="horizontal-menu_8_">
		</g>
		<g id="sidebar-2_8_">
		</g>
		<g id="Pen_8_">
		</g>
		<g id="Pen1_8_">
		</g>
		<g id="clock_8_">
		</g>
		<g id="external-link_8_">
		</g>
		<g id="hr_8_">
		</g>
		<g id="info_8_">
		</g>
		<g id="warning_8_">
		</g>
		<g id="plus-circle_8_">
		</g>
		<g id="minus-circle_8_">
		</g>
		<g id="vue_8_">
		</g>
		<g id="cog_8_">
		</g>
		<g id="logo_8_">
		</g>
		<g id="radio-check_8_">
		</g>
		<g id="eye-slash_8_">
		</g>
		<g id="eye_8_">
		</g>
		<g id="toggle-off_8_">
		</g>
		<g id="shredder_8_">
		</g>
		<g id="spinner--loading--dots-_8_">
		</g>
		<g id="react_8_">
		</g>
		<g id="check-selected_8_">
		</g>
		<g id="turn-off_8_">
		</g>
		<g id="code-block_8_">
		</g>
		<g id="user_8_">
		</g>
		<g id="coffee-bean_8_">
		</g>
		<g transform="matrix(0.638317,0.368532,-0.368532,0.638317,785.021,-208.975)">
			<g id="coffee-beans_8_">
				<g id="coffee-bean1_8_">
				</g>
			</g>
		</g>
		<g id="coffee-bean-filled_8_" transform="matrix(0.866025,0.5,-0.5,0.866025,717.879,-387.292)">
			<g transform="matrix(1,0,0,1,0,-0.699553)">
				<path style="fill-rule:evenodd;clip-rule:evenodd;fill:#3B4F45;" d="M1416.5438232,459.249176
					c1.1074219-2.8692017,4.1733398-4.7783508,7.6088867-4.7358093c1.5083008-0.032959,2.7353516-0.0174561,2.7353516-0.0174561
					s41.8339844,0.7339172,79.6258545,45.119812c15.3737793,18.0560913,40.5861816,33.911499,64.3294678,38.3345947
					c3.1751709,0.5822144,5.6481934,2.800415,6.2550049,5.6151123c0.6066895,2.8148804-0.7706299,5.666626-3.4909668,7.2206421
					c-21.1240234,12.1251831-60.4515381,25.6231079-106.3596191,1.2824707
					C1425.8547363,530.1203003,1405.1536865,490.512146,1416.5438232,459.249176z"/>
			</g>
			<g transform="matrix(-1,0,0,-1,1483.03,703.293)">
				<path style="fill-rule:evenodd;clip-rule:evenodd;fill:#3B4F45;" d="M-116.7641602,180.0887451
					c1.141983-2.9980774,4.3425217-5,7.9280701-4.9533844c1.3967133-0.0374908,2.4974747-0.0259857,2.4974747-0.0259857
					s41.8340607,0.7338867,79.6258926,45.1197968c15.2350845,17.894043,40.1347084,33.6255798,63.6863022,38.2120819
					c3.2824516,0.6351013,5.8204193,2.9550781,6.4163628,5.877594c0.59935,2.9245605-0.8558884,5.8699341-3.6854095,7.4584656
					c-21.2795734,12.0300598-60.2603226,24.987854-105.6833344,0.9046631
					C-107.2679062,250.7848206-127.9699707,211.3192902-116.7641602,180.0887451z"/>
			</g>
		</g>
		<g transform="matrix(0.638317,0.368532,-0.368532,0.638317,913.062,-208.975)">
			<g id="coffee-beans-filled_8_">
				<g id="coffee-bean2_8_">
				</g>
			</g>
		</g>
		<g id="clipboard_8_">
		</g>
		<g transform="matrix(1,0,0,1,128.011,1.35415)">
			<g id="clipboard-paste_8_">
			</g>
		</g>
		<g id="clipboard-copy_8_">
		</g>
		<g id="Layer1_8_">
		</g>
	</g>
	<g id="Icons1_6_">
		<g id="Strike_6_">
		</g>
		<g id="H1_6_">
		</g>
		<g id="H2_6_">
		</g>
		<g id="H3_6_">
		</g>
		<g id="list-ul_6_">
		</g>
		<g id="hamburger-1_6_">
		</g>
		<g id="hamburger-2_6_">
		</g>
		<g id="list-ol_6_">
		</g>
		<g id="list-task_6_">
		</g>
		<g id="trash_6_">
		</g>
		<g id="vertical-menu_6_">
		</g>
		<g id="horizontal-menu_6_">
		</g>
		<g id="sidebar-2_6_">
		</g>
		<g id="Pen_6_">
		</g>
		<g id="Pen1_6_">
		</g>
		<g id="clock_6_">
		</g>
		<g id="external-link_6_">
		</g>
		<g id="hr_6_">
		</g>
		<g id="info_6_">
		</g>
		<g id="warning_6_">
		</g>
		<g id="plus-circle_6_">
		</g>
		<g id="minus-circle_6_">
		</g>
		<g id="vue_6_">
		</g>
		<g id="cog_6_">
		</g>
		<g id="logo_6_">
		</g>
		<g id="radio-check_6_">
		</g>
		<g id="eye-slash_6_">
		</g>
		<g id="eye_6_">
		</g>
		<g id="toggle-off_6_">
		</g>
		<g id="shredder_6_">
		</g>
		<g id="spinner--loading--dots-_6_">
		</g>
		<g id="react_6_">
		</g>
		<g id="check-selected_6_">
		</g>
		<g id="turn-off_6_">
		</g>
		<g id="code-block_6_">
		</g>
		<g id="user_6_">
		</g>
		<g id="coffee-bean_6_">
		</g>
		<g transform="matrix(0.638317,0.368532,-0.368532,0.638317,785.021,-208.975)">
			<g id="coffee-beans_6_">
				<g id="coffee-bean1_6_">
				</g>
			</g>
		</g>
		<g id="coffee-bean-filled_6_" transform="matrix(0.866025,0.5,-0.5,0.866025,717.879,-387.292)">
			<g transform="matrix(1,0,0,1,0,-0.699553)">
				<path style="fill-rule:evenodd;clip-rule:evenodd;fill:#3B4F45;" d="M145.4495087,563.2346802
					c2.883194-1.0704346,6.3441162-0.0374756,8.5874176,2.5648193c1.0236359,1.1083984,1.8245392,2.0379639,1.8245392,2.0379639
					s27.1548157,31.831543,18.9250488,89.5429077c-3.3477325,23.4769287,1.4690399,52.8683472,13.8790283,73.5880127
					c1.6664429,2.7645874,1.6421814,6.0866089-0.0649261,8.4053345c-1.7073517,2.3187866-4.7563171,3.175293-7.7221985,2.1662598
					c-23.0746613-7.7979736-59.2331238-28.3262939-71.39785-78.8439331
					C98.5133133,617.145752,114.4815903,575.4041748,145.4495087,563.2346802z"/>
			</g>
			<g transform="matrix(-1,0,0,-1,1483.03,703.293)">
				<path style="fill-rule:evenodd;clip-rule:evenodd;fill:#3B4F45;" d="M1264.6669922-39.3657532
					c3.0026855-1.1298141,6.6223145-0.0574989,8.9619141,2.6599655c0.9530029,1.021698,1.6734619,1.8540916,1.6734619,1.8540916
					s27.1547852,31.8314877,18.9250488,89.5428543c-3.3182373,23.2657204,1.3842773,52.340786,13.5447998,73.0249634
					c1.697876,2.8800735,1.6403809,6.3181534-0.1547852,8.7001114c-1.7943115,2.3858795-4.9649658,3.2460785-8.0290527,2.1779785
					c-23.1064453-7.9774323-58.6304932-28.6036453-70.6669922-78.5873718
					C1217.9847412,14.5682497,1233.845459-27.0795536,1264.6669922-39.3657532z"/>
			</g>
		</g>
		<g transform="matrix(0.638317,0.368532,-0.368532,0.638317,913.062,-208.975)">
			<g id="coffee-beans-filled_6_">
				<g id="coffee-bean2_6_">
				</g>
			</g>
		</g>
		<g id="clipboard_6_">
		</g>
		<g transform="matrix(1,0,0,1,128.011,1.35415)">
			<g id="clipboard-paste_6_">
			</g>
		</g>
		<g id="clipboard-copy_6_">
		</g>
		<g id="Layer1_6_">
		</g>
	</g>
	<g id="Icons1_7_">
		<g id="Strike_7_">
		</g>
		<g id="H1_7_">
		</g>
		<g id="H2_7_">
		</g>
		<g id="H3_7_">
		</g>
		<g id="list-ul_7_">
		</g>
		<g id="hamburger-1_7_">
		</g>
		<g id="hamburger-2_7_">
		</g>
		<g id="list-ol_7_">
		</g>
		<g id="list-task_7_">
		</g>
		<g id="trash_7_">
		</g>
		<g id="vertical-menu_7_">
		</g>
		<g id="horizontal-menu_7_">
		</g>
		<g id="sidebar-2_7_">
		</g>
		<g id="Pen_7_">
		</g>
		<g id="Pen1_7_">
		</g>
		<g id="clock_7_">
		</g>
		<g id="external-link_7_">
		</g>
		<g id="hr_7_">
		</g>
		<g id="info_7_">
		</g>
		<g id="warning_7_">
		</g>
		<g id="plus-circle_7_">
		</g>
		<g id="minus-circle_7_">
		</g>
		<g id="vue_7_">
		</g>
		<g id="cog_7_">
		</g>
		<g id="logo_7_">
		</g>
		<g id="radio-check_7_">
		</g>
		<g id="eye-slash_7_">
		</g>
		<g id="eye_7_">
		</g>
		<g id="toggle-off_7_">
		</g>
		<g id="shredder_7_">
		</g>
		<g id="spinner--loading--dots-_7_">
		</g>
		<g id="react_7_">
		</g>
		<g id="check-selected_7_">
		</g>
		<g id="turn-off_7_">
		</g>
		<g id="code-block_7_">
		</g>
		<g id="user_7_">
		</g>
		<g id="coffee-bean_7_">
		</g>
		<g transform="matrix(0.638317,0.368532,-0.368532,0.638317,785.021,-208.975)">
			<g id="coffee-beans_7_">
				<g id="coffee-bean1_7_">
				</g>
			</g>
		</g>
		<g id="coffee-bean-filled_7_" transform="matrix(0.866025,0.5,-0.5,0.866025,717.879,-387.292)">
			<g transform="matrix(1,0,0,1,0,-0.699553)">
				<path style="fill-rule:evenodd;clip-rule:evenodd;fill:#3B4F45;" d="M1315.1656494,1695.0269775
					c0.354248-3.0550537,2.8450928-5.6705322,6.1818848-6.4888916c1.4522705-0.4093018,2.644043-0.7011719,2.644043-0.7011719
					s40.6872559-9.7558594,88.3820801,23.7633057c19.4022217,13.635498,47.7796631,22.678833,71.8745117,21.020874
					c3.2197266-0.2305908,6.1690674,1.2983398,7.4608154,3.8717041c1.291748,2.5734863,0.6716309,5.6791992-1.5733643,7.8643799
					c-17.4187012,17.0245361-52.1184082,39.9324951-102.65625,27.8516846
					C1341.9116211,1761.3146973,1311.9593506,1728.1453857,1315.1656494,1695.0269775z"/>
			</g>
			<g transform="matrix(-1,0,0,-1,1483.03,703.293)">
				<path style="fill-rule:evenodd;clip-rule:evenodd;fill:#3B4F45;" d="M-25.7338886-1007.7856445
					c0.3555813-3.1884766,2.9534702-5.9274292,6.436657-6.7793579c1.3429146-0.3857422,2.4115391-0.6500244,2.4115391-0.6500244
					s40.687233-9.7557983,88.382019,23.7633667c19.2274475,13.5133057,47.2710495,22.5149536,71.2211227,21.0632324
					c3.3369598-0.2062988,6.374649,1.4049072,7.6828156,4.0853882c1.3119812,2.6815796,0.6399231,5.8973389-1.702179,8.1433105
					c-17.5930481,16.9713745-52.0922012,39.2695923-102.0959625,27.3166504
					C1.1477112-941.7138062-28.7697983-974.744751-25.7338886-1007.7856445z"/>
			</g>
		</g>
		<g transform="matrix(0.638317,0.368532,-0.368532,0.638317,913.062,-208.975)">
			<g id="coffee-beans-filled_7_">
				<g id="coffee-bean2_7_">
				</g>
			</g>
		</g>
		<g id="clipboard_7_">
		</g>
		<g transform="matrix(1,0,0,1,128.011,1.35415)">
			<g id="clipboard-paste_7_">
			</g>
		</g>
		<g id="clipboard-copy_7_">
		</g>
		<g id="Layer1_7_">
		</g>
	</g>
</g>
<g id="Слой_3">
	<path style="fill-rule:evenodd;clip-rule:evenodd;fill:#3B4F45;" d="M538.3370361,1678.802002
		c-1.5396729-0.2780762-3.1535034,0.1022949-4.4019775,1.0637207c-1.2662354,0.935791-2.0608521,2.3598633-2.2304688,3.9190674
		c-1.3950806,13.4304199-4.6337891,45.8754883-5.607605,63.793335c-0.0039063,0.0217285-0.0039063,0.0217285-0.0078125,0.043335
		c-0.1052246,4.3029785,2.956665,8.3044434,7.1168213,9.3243408c0.0216675,0.0039063,0.0216675,0.0039063,0.043335,0.0078125
		c35.182312,7.6741943,70.6824341,14.0845947,106.3485107,19.2038574l0.0217285,0.0039063
		c4.4314575,0.5090332,8.8331909-2.4133301,10.0835571-6.7333984l0,0
		c0.0117188-0.0650635,12.2965698-44.7828369,16.8081665-61.2109375c0.4120483-1.5379639,0.1696167-3.1716309-0.6637573-4.5089111
		c-0.8550415-1.3413086-2.2300415-2.2836914-3.7913818-2.5656738
		C639.5026245,1697.0698242,560.7387695,1682.847168,538.3370361,1678.802002L538.3370361,1678.802002z M700.6091919,1607.5587158
		c0.571106-2.0466309,0.2530518-4.2537842-0.8568115-6.0441895c-1.1315308-1.7941895-2.9661255-3.0435791-5.0696411-3.4234619
		c-28.34375-5.1181641-122.4179688-22.1055908-150.7833252-27.2276611
		c-2.0818481-0.3758545-4.2375488,0.1529541-5.9251709,1.4381104c-1.6876221,1.2852783-2.7575073,3.2418213-2.9165649,5.362793
		c-1.5855713,18.9494629-5.4718628,65.2734375-6.9467773,82.7424316c-0.3205566,3.8833008,2.3642578,7.3688965,6.1809692,8.0581055
		c24.7655029,4.4719238,110.5122681,19.9556885,135.277771,24.4276123c3.8167725,0.689209,7.5293579-1.6409912,8.5872192-5.3912354
		C682.9064331,1670.6234131,695.4671631,1625.8658447,700.6091919,1607.5587158L700.6091919,1607.5587158z
		 M628.0031128,1604.9951172c3.3926392,2.0457764,6.7189331,6.3188477,7.4141235,7.4296875
		c6.7263794,10.8660889,5.6628418,27.9168701-6.3773804,40.029541c-9.0026245,9.0559082-23.6312256,14.2967529-35.5654297,8.088501
		c-15.1470337-7.885498-16.1875-32.2580566-1.8583984-47.2492676c7.2915039-7.640625,17.9626465-12.5435791,28.6494141-11.0841064
		c0.043335,0.0078125,0.086731,0.015625,0.130127,0.0234375c0.6978149,0.1036377,0.6978149,0.1036377,1.3878784,0.2506104
		c0,0,0.0216675,0.0039063,0.043396,0.0079346c2.2574463,0.5195313,4.3221436,1.3626709,6.1762695,2.50354V1604.9951172z
		 M629.8497314,1621.1828613c-0.1918335-0.5495605-0.661377-0.9255371-1.2252197-1.0273438
		c-0.5421753-0.0979004-1.1174316,0.1116943-1.4894409,0.5595703c-8.2583618,10.0189209-16.824585,19.7581787-25.3019409,29.6256104
		c-0.3720093,0.447876-0.4816284,1.0550537-0.2897949,1.6047363c0.213562,0.5535889,0.7008667,0.9550781,1.2903442,1.0391846
		c10.1870117,0.630249,23.5310669-7.4177246,27.0658569-19.9243164c1.1187134-3.9631348,1.1470947-8.2126465-0.0497437-11.8773193
		L629.8497314,1621.1828613z M619.9113159,1614.2154541c0.368042-0.4261475,0.4816284-1.0550537,0.2897339-1.6047363
		c-0.1957397-0.5280762-0.6831055-0.9295654-1.2468872-1.0313721l0,0c-0.0217285-0.0039063-0.043396-0.0078125-0.0650635-0.0117188
		c-16.1257324-2.2176514-32.2614746,16.7020264-27.9742432,31.651001l0,0
		c0.2000122,0.7526855,0.8156128,1.3117676,1.5707397,1.4705811c0.7589722,0.1369629,1.545105-0.1241455,2.0352173-0.7298584
		C602.7869873,1633.8972168,611.4044189,1624.1223145,619.9113159,1614.2154541L619.9113159,1614.2154541z
		 M543.2644653,1555.9020996c-0.2566528,2.9095459,1.7550049,5.5345459,4.6175537,6.0513916
		c23.6378174,4.2684326,122.5697021,22.1329346,146.1858521,26.3974609c2.8842773,0.520874,5.6868896-1.2347412,6.4640503-4.050415
		c2.2254028-8.1075439,6.6113892-24.0880127,8.9054565-32.4519043c0.3629761-1.3900146,0.1621094-2.8818359-0.604126-4.0950928
		s-2.0267334-2.0454102-3.4363403-2.3000488c-25.0474243-4.5228271-128.0562744-23.1236572-153.1253662-27.6505127
		c-1.4096069-0.2545166-2.8598633,0.0882568-4.0020142,0.9569092s-1.8737793,2.1920166-1.99823,3.6251221
		C545.4952393,1531.0230713,544.0151978,1547.5283203,543.2644653,1555.9020996L543.2644653,1555.9020996z
		 M550.8621216,1507.8746338c0,0,138.2487793,24.9642334,161.9772339,29.2265625
		c0.8891602,0.1605225,1.7954712-0.1459961,2.3918457-0.8444824s0.786438-1.6270752,0.4976196-2.5078125
		c-0.795105-3.9056396-1.7973633-9.6401367-2.2072754-11.2144775c-0.3530273-0.1533203-0.7138672-0.2631836-1.104187-0.3337402
		c-52.8898926-10.8045654-106.218689-19.4266357-159.3712769-29.0246582l0,0
		c-1.8945313-0.2973633-3.9972534,4.8989258-7.3165283,9.7634277c-1.9144897,2.7894287,2.3034668,4.3571777,4.4425659,4.788208
		C550.3889771,1507.7668457,550.8621216,1507.8746338,550.8621216,1507.8746338L550.8621216,1507.8746338z"/>
	<path style="fill-rule:evenodd;clip-rule:evenodd;fill:#3B4F45;" d="M171.9023438,976.7119751
		c-1.5776367-0.5056152-3.3244934-0.3304443-4.7685242,0.5054321c-1.4591217,0.8065186-2.490921,2.190979-2.8854523,3.8042603
		c-3.3291626,13.9042358-11.2337494,47.5125122-14.7437592,66.18573c-0.0071259,0.0223389-0.0071259,0.0223389-0.0142365,0.0445557
		c-0.7078552,4.5020752,1.9506378,9.1275635,6.1759338,10.7758789c0.0222168,0.0070801,0.0222168,0.0070801,0.0444489,0.0141602
		c35.8656464,12.9406738,72.2403717,24.5987549,108.9685669,34.9244385l0.0222473,0.0070801
		c4.5810852,1.1497803,9.6073914-1.3067627,11.5197144-5.6679688l0,0
		c0.0213623-0.0666504,19.1256714-45.3016357,26.1425171-61.9199219c0.6460571-1.5571899,0.6184082-3.3057251-0.0707092-4.8252563
		c-0.7113342-1.5266113-2.0238037-2.7068481-3.6236572-3.2196045
		C275.5602722,1009.9342651,194.855957,984.0686035,171.9023438,976.7119751L171.9023438,976.7119751z M352.1325378,924.4579468
		c0.883667-2.0690308,0.8562927-4.4300537-0.0601807-6.463501c-0.9386902-2.0405884-2.6909485-3.6067505-4.846344-4.2975464
		c-29.0419922-9.3079834-125.4338837-40.2014771-154.4980927-49.5165405
		c-2.1331635-0.6837158-4.4694214-0.4278564-6.4193726,0.6868896c-1.9499664,1.1147461-3.3446808,3.0200195-3.8061523,5.2243652
		c-4.2953949,19.6712646-14.8067017,67.7583008-18.7804871,85.8909302
		c-0.8756409,4.0318604,1.4586639,8.0634155,5.3694458,9.3167725
		c25.3756409,8.1328735,113.2349091,36.291748,138.6105499,44.4246216c3.9107971,1.253418,8.1314697-0.6772461,9.7626343-4.46698
		c7.329071-17.057251,26.7285156-62.2957153,34.6680298-80.7990112H352.1325378z M276.2732849,911.6859741
		c3.2772217,2.6185303,6.1755981,7.565918,6.7510681,8.8284302c5.552063,12.3401489,2.0682678,30.0908203-12.2522583,41.1338501
		c-10.707489,8.2561035-26.7909546,11.7263794-38.4563904,3.5526123
		c-14.8050995-10.3806763-12.5133057-36.1091919,4.6095276-49.8560791
		c8.7148132-7.0080566,20.5971985-10.6730957,31.6125183-7.6572876c0.0444336,0.0142822,0.0888672,0.0285034,0.1333008,0.0427856
		c0.7181702,0.2056274,0.7181702,0.2056274,1.4221191,0.4557495c0,0,0.0222168,0.0071411,0.0444336,0.0142212
		c2.2975159,0.8588867,4.3478088,2.0305786,6.1356812,3.4856567V911.6859741z M275.9641113,928.9348755
		c-0.125061-0.6036377-0.5657654-1.0634155-1.1434937-1.2485962c-0.5555115-0.1780396-1.1885071-0.0378418-1.6411743,0.3806152
		c-10.059967,9.3702393-20.4042511,18.4043579-30.6730194,27.585144c-0.4526672,0.418457-0.6520691,1.0406494-0.5270081,1.6442871
		c0.1472931,0.6107788,0.6031036,1.0999146,1.2101746,1.2699585c10.6059265,2.0760498,25.7307281-4.5192871,31.1776581-17.1566772
		c1.7245789-4.0048218,2.3444214-8.4616699,1.5968628-12.4746704V928.9348755z M266.4990234,920.2411499
		c0.4455566-0.3962402,0.6520691-1.0406494,0.5270081-1.6442871c-0.1322021-0.5814209-0.5880127-1.0705566-1.165741-1.2557373l0,0
		c-0.0222168-0.0070801-0.0444336-0.0142212-0.0666504-0.0213623c-16.6193848-4.5668945-36.1841125,13.0528564-33.7593384,29.340332
		l0,0c0.1054077,0.8178711,0.6740265,1.4901733,1.4446106,1.7616577c0.77771,0.2492065,1.6391602,0.0842896,2.2376862-0.4834595
		c10.0742188-9.4146729,20.4771576-18.4790039,30.7824249-27.6970825V920.2411499z M194.1387177,848.387146
		c-0.6734009,3.0185547,1.0737762,6.0532837,4.0068665,6.9933472
		c24.2201843,7.7625122,125.5894318,40.2513428,149.7873993,48.0067749c2.9552917,0.9471436,6.1410522-0.5065918,7.3477173-3.354248
		c3.461731-8.2015991,10.2845459-24.3674927,13.8539429-32.8286133c0.5740051-1.4086914,0.570282-3.0025635-0.0655823-4.3825073
		s-1.8434753-2.4285278-3.2877808-2.8914185c-25.6645203-8.2254639-131.2111816-42.0531006-156.8979034-50.2857056
		c-1.4443207-0.4628906-3.014267-0.3045044-4.3338013,0.4487305s-2.271286,2.0408936-2.6008759,3.5279541
		C199.9347534,822.5810547,196.0894318,839.7012939,194.1387177,848.387146L194.1387177,848.387146z M208.7824249,799.0272217
		c0,0,141.6547394,45.4002075,165.970932,53.1690674c0.9110413,0.2919922,1.9049683,0.0959473,2.6279602-0.5543823
		c0.7230225-0.6503906,1.0514526-1.5987549,0.8705444-2.5633545c-0.2923279-4.210144-0.5482178-10.3688965-0.7599182-12.0784302
		c-0.3492432-0.2098999-0.7127686-0.3754272-1.1127319-0.5036011
		c-54.0187988-18.6851807-108.8013611-35.1403198-163.263443-52.5953979l0,0
		c-1.9474182-0.5751343-4.8761597,4.5874023-9.0358429,9.2329102c-2.3969116,2.6622314,1.8130035,4.8935547,3.9985809,5.6430664
		C208.300705,798.8483276,208.7824249,799.0272217,208.7824249,799.0272217L208.7824249,799.0272217z"/>
	<path style="fill-rule:evenodd;clip-rule:evenodd;fill:#3B4F45;" d="M997.0629883,334.4916687
		c-1.3057861,0.6158752-2.3145142,1.7661133-2.7374878,3.157196c-0.4501343,1.3813477-0.2843018,2.8768921,0.4235229,4.1392822
		c6.1459351,10.8377686,21.0922241,36.9492798,29.9584961,50.9329834c0.008667,0.0184021,0.008667,0.0184021,0.017334,0.0367737
		c2.2258301,3.2891846,6.6696777,4.655426,10.3416748,3.1933289c0.0183105-0.0086975,0.0183105-0.0086975,0.0367432-0.0173645
		c30.5439453-13.0799866,60.6497803-27.2797546,90.1884766-42.5385437l0.0184326-0.008667
		c3.6021729-1.991272,5.3438721-6.5447998,3.9691162-10.4602966l0,0
		c-0.026001-0.0551758-14.7497559-40.2330627-20.1599121-54.9924927c-0.5142822-1.3761902-1.5715332-2.4737549-2.9139404-3.0321045
		c-1.3609619-0.5496826-2.8988037-0.5212708-4.2229004,0.1032715
		C1082.8560791,294.0262756,1016.0606689,325.531189,997.0629883,334.4916687L997.0629883,334.4916687z M1080.8189697,194.0423279
		c-0.6671143-1.8435974-2.0883789-3.3315277-3.8812256-4.0821228c-1.8112793-0.7419281-3.8588867-0.6979218-5.6428223,0.1434784
		c-24.0367432,11.337265-103.8161011,48.9661865-127.8712769,60.3121033
		c-1.7655029,0.8327332-3.1018066,2.3847961-3.6813354,4.254364c-0.5795288,1.8695831-0.3353271,3.912674,0.6813354,5.5914459
		c8.9592285,15.0863953,30.8533325,51.972229,39.1026001,65.8871765c1.8393555,3.089325,5.7235107,4.2698975,8.9603271,2.7432251
		c21.0022583-9.9059753,93.7194824-44.20401,114.7218018-54.1100159c3.2368164-1.5266418,4.7779541-5.2661438,3.5638428-8.6503906
		c-5.47229-15.224762-20.0100098-55.580307-25.9532471-72.0892944V194.0423279z M1024.8953857,231.0084839
		c3.6447754-0.2802582,8.4328613,1.1484528,9.5501709,1.610672c10.8742676,4.5608215,19.2086182,17.9410553,16.6508789,33.4910431
		c-1.9129639,11.6262512-10.0964355,23.3997803-22.3883057,25.1281433
		c-15.604248,2.1890564-29.4414063-15.565155-26.7058716-34.5038757c1.385437-9.646347,6.7766113-19.0461884,15.5875244-23.6741028
		c0.0368042-0.0173492,0.0735474-0.0346985,0.1103516-0.0520477c0.579834-0.2959595,0.579834-0.2959595,1.177002-0.5551453
		c0,0,0.0183716-0.0086823,0.0368042-0.0173492c1.9743652-0.8188324,3.9772339-1.2913971,5.9814453-1.4273529V231.0084839z
		 M1034.9539795,242.1815643c-0.4384766-0.3102264-0.9926758-0.3411255-1.4708252-0.1155853
		c-0.4597168,0.2168427-0.7796631,0.6824951-0.8193359,1.2182617c-0.8378906,11.9510651-2.0568848,23.8569946-3.140625,35.8115234
		c-0.0395508,0.5357361,0.2033691,1.0506897,0.6419678,1.3609314c0.4569092,0.3015442,1.038208,0.3421326,1.526001,0.0895691
		c7.9914551-4.9832764,13.7060547-18.1777954,9.6625977-29.4676361c-1.2824707-3.576828-3.5374756-6.7848206-6.3996582-8.897049
		L1034.9539795,242.1815643z M1023.7548828,242.2704163c0.0482178-0.5173645-0.2033081-1.050705-0.6419067-1.3609161
		c-0.4299316-0.2918396-1.0111084-0.3324432-1.4892578-0.1069183l0,0c-0.0184326,0.0086823-0.0368042,0.0173492-0.0551758,0.0260315
		c-13.3035278,6.9717102-15.2921143,29.8297119-4.0633545,38.76474l0,0c0.5534058,0.458374,1.3154297,0.548645,1.9677734,0.2634277
		c0.6436768-0.3035889,1.0944214-0.9208679,1.1381836-1.6384583c0.8206177-11.9878235,2.059021-23.9479065,3.1437378-35.947876
		V242.2704163z M934.9324341,239.515152c1.3656616,2.3235016,4.2831421,3.2181244,6.7107544,2.0731201
		c20.0459595-9.4549408,103.9448242-49.0269012,123.9724121-58.4731598c2.4459229-1.1536865,3.6112061-3.973999,2.6868896-6.505661
		c-2.6708984-7.2834473-7.935791-21.6393127-10.6923828-29.1521149c-0.4719238-1.2387695-1.421875-2.2520142-2.6474609-2.7530975
		c-1.2255859-0.5010986-2.6184082-0.4511719-3.8138428,0.1126556
		c-21.241333,10.0187683-108.5976563,51.2214966-129.8574219,61.2489319
		c-1.1953735,0.5638275-2.1014404,1.598175-2.4942627,2.8626099c-0.3928223,1.2644196-0.2335815,2.65065,0.4405518,3.7940063
		c4.0440063,6.9055939,11.7732544,20.0991364,15.6947021,26.7927094H934.9324341z M914.9142456,199.3614044
		c0,0,117.241394-55.2983856,137.3522339-64.8064117c0.7540283-0.3556519,1.270752-1.0714874,1.3446045-1.9157104
		c0.0739746-0.844223-0.2806396-1.6437073-0.9693604-2.1506805c-2.6894531-2.5084763-6.5142822-6.2800369-7.6655273-7.2433167
		c-0.3474121,0.0738983-0.6773682,0.1845779-1.0084229,0.3407135
		c-45.5247803,20.2133636-90.2103271,42.3015594-135.2861938,63.5621643l0,0
		c-1.5826416,0.7914276-0.3790894,5.8218079-0.2671509,11.2546539c0.0557861,3.1212006,4.0645752,2.0397339,5.9026489,1.2177734
		C914.5009766,199.533844,914.9142456,199.3614044,914.9142456,199.3614044L914.9142456,199.3614044z"/>
	<path style="fill-rule:evenodd;clip-rule:evenodd;fill:#3B4F45;" d="M1672.0058594,1391.1759033
		c-1.2874756-0.5003662-2.75-0.442749-3.9938965,0.1799316c-1.2550049,0.5975342-2.1834717,1.6976318-2.5932617,3.0202637
		c-3.47229,11.4030762-11.7468262,38.9727783-15.6103516,54.3355713c-0.0070801,0.0181885-0.0070801,0.0181885-0.0141602,0.0362549
		c-0.8162842,3.7110596,1.1627197,7.6945801,4.5957031,9.2794189c0.0181885,0.0070801,0.0181885,0.0070801,0.036377,0.0141602
		c29.1942139,12.5793457,58.8768311,24.1171875,88.9207764,34.5639648l0.0181885,0.0070801
		c3.7542725,1.1879883,8.0611572-0.6026611,9.8728027-4.135498l0,0
		c0.0211182-0.0543213,18.2028809-36.7346191,24.8809814-50.2102051c0.616333-1.2631836,0.6815186-2.7197266,0.1846924-4.019165
		c-0.5148926-1.3062744-1.5474854-2.3547363-2.8530273-2.8621826
		C1756.5930176,1424.0554199,1690.7364502,1398.456665,1672.0058594,1391.1759033L1672.0058594,1391.1759033z
		 M1824.6307373,1356.7868652c0.8398438-1.6772461,0.9361572-3.6434326,0.276123-5.381958
		c-0.6782227-1.7454834-2.057373-3.1373291-3.8161621-3.8210449
		c-23.6989746-9.2119141-102.3569336-39.7866211-126.0739746-49.0056152
		c-1.7407227-0.6766357-3.697876-0.581665-5.3769531,0.2476807c-1.6789551,0.8292236-2.935791,2.3443604-3.4311523,4.1556396
		c-4.5675049,16.1535645-15.7420654,55.6409912-19.9642334,70.5303955c-0.932251,3.3111572,0.8068848,6.7840576,3.9981689,8.0244141
		c20.7071533,8.0490723,92.4022217,35.9173584,113.109375,43.9663086c3.1912842,1.2404785,6.8011475-0.1531982,8.3499756-3.2247314
		C1798.6619873,1408.4528809,1817.0895996,1371.784668,1824.6307373,1356.7868652L1824.6307373,1356.7868652z
		 M1762.1452637,1342.3292236c2.5952148,2.3444824,4.7575684,6.6080322,5.1727295,7.6877441
		c3.9975586,10.5496826,0.2023926,25.1459961-12.2724609,33.6131592
		c-9.3275146,6.3303223-22.8873291,8.4064941-32.1827393,1.0155029c-11.796875-9.3861084-8.5910645-30.6816406,6.352417-41.2575684
		c7.6062012-5.3922119,17.6796875-7.8425293,26.694458-4.7767334c0.0362549,0.0140381,0.0725098,0.0281982,0.1087646,0.0422363
		c0.5872803,0.2073975,0.5872803,0.2073975,1.1604004,0.4510498c0,0,0.0181885,0.0070801,0.036377,0.0141602
		c1.8685303,0.8306885,3.5157471,1.9091797,4.9301758,3.2104492H1762.1452637z M1761.0174561,1356.6680908
		c-0.0736084-0.508667-0.4172363-0.9134521-0.8886719-1.0968018c-0.4532471-0.1761475-0.9870605-0.0914307-1.3848877,0.2340088
		c-8.8448486,7.2901611-17.9094238,14.2861328-26.918457,21.4080811c-0.3978271,0.3254395-0.5950928,0.8331299-0.5214844,1.3417969
		c0.0916748,0.5157471,0.4462891,0.9458008,0.9429932,1.118042c8.7214355,2.2629395,21.6411133-2.4622803,26.8118896-12.7042236
		c1.6373291-3.2457275,2.3781738-6.9234619,1.9586182-10.3007813V1356.6680908z M1753.5793457,1348.9555664
		c0.3908691-0.307373,0.5952148-0.8331299,0.5216064-1.3417969c-0.0806885-0.4906006-0.4353027-0.9206543-0.9067383-1.1038818l0,0
		c-0.0181885-0.0070801-0.0362549-0.0141602-0.0544434-0.0211182c-13.6000977-4.6394043-30.7711182,9.0362549-29.5753174,22.7130127
		l0,0c0.0463867,0.6859131,0.4857178,1.2741699,1.1132813,1.5389404c0.6346436,0.2467041,1.3598633,0.1529541,1.8865967-0.2894287
		C1735.4232178,1363.125,1744.5380859,1356.1066895,1753.5793457,1348.9555664L1753.5793457,1348.9555664z
		 M1696.987915,1285.5063477c-0.7127686,2.4780273,0.5880127,5.0917969,2.9814453,6.0220947
		c19.7642822,7.6824951,102.4838867,39.8360596,122.2299805,47.5114746
		c2.4116211,0.9373779,5.1361084-0.1115723,6.2840576-2.4205322c3.2947998-6.6506348,9.7886963-19.7595215,13.1861572-26.6207275
		c0.5488281-1.1433105,0.6262207-2.4699707,0.166626-3.6503906c-0.4594727-1.180542-1.411499-2.1141357-2.5900879-2.5722656
		c-20.9428711-8.1405029-107.0712891-41.6191406-128.0322266-49.7667236
		c-1.1785889-0.4581299-2.4931641-0.4056396-3.6292725,0.1546631c-1.1361084,0.5601807-1.9931641,1.5837402-2.3425293,2.8046875
		C1703.1138916,1264.3231201,1699.0496826,1278.3764648,1696.987915,1285.5063477L1696.987915,1285.5063477z
		 M1711.6656494,1245.1682129c0,0,115.5936279,44.9317627,135.4373779,52.6242676
		c0.7434082,0.2890625,1.5804443,0.1760254,2.2149658-0.3287354s0.9556885-1.2773438,0.8538818-2.0892334
		c-0.0307617-3.5184326,0.0671387-8.6566162-0.0228271-10.0899658c-0.2800293-0.1923828-0.5742188-0.3483887-0.9005127-0.4753418
		c-44.0113525-18.2762451-88.770874-34.7352295-133.2131348-52.0102539l0,0
		c-1.5916748-0.5769043-4.2895508,3.5715332-7.9857178,7.2276611c-2.1290283,2.0944824,1.2618408,4.1638184,3.0428467,4.8979492
		c0.1812744,0.0704346,0.5732422,0.2436523,0.5732422,0.2436523H1711.6656494z"/>
</g>
<g id="Слой_4">
	<g>
		<g>
			<g>
				<path style="fill:#3B4F45;" d="M1392.4542236,375.1592407c19.4365234-9.1340942,37.3602295-21.6400146,53.2685547-37.16745
					c15.9105225-15.529541,28.8459473-33.1418152,38.4487305-52.352356
					c2.1868896-4.2618713,3.3731689-9.0370178,3.4317627-13.8127441c0.0136719-1.1565247-0.0533447-2.2998962-0.1799316-3.427002
					l-134.0374756-44.3271637c-0.8994141,0.7208862-1.772583,1.4922638-2.6140137,2.3134613
					c-0.791626,0.7727051-1.5588379,1.5948181-2.2779541,2.4418488c-0.0292969,0.0328522-0.0568848,0.0660706-0.0842285,0.0989227
					c-1.3127441,1.6009827-3.119751,3.3647766-4.7142334,4.9210205c-1.6101074,1.571579-3.4464111,3.188797-5.2331543,4.7561188
					c-0.8416748,0.6763916-1.661377,1.4017944-2.4366455,2.1584625c-0.7962646,0.7772369-1.550293,1.5899506-2.2593994,2.4335938
					l41.4493408,134.8309631C1380.94104,378.7853699,1386.9420166,377.8232727,1392.4542236,375.1592407z"/>
			</g>
		</g>
		<g>
			<g>
				<path style="fill:#3B4F45;" d="M1320.5239258,374.2738953c12.0614014,0.3125,24.439209-1.0120544,36.885498-3.9367676
					l-32.2818604-105.0086975c-0.9505615,0.4246521-1.8355713,0.7957458-2.6584473,1.1131592
					c-0.032959,0.0140991-0.06604,0.026062-0.098999,0.0394287c-1.392334,0.5591736-2.7368164,1.2181702-4.0411377,1.9532166
					l-10.576416,102.1968994C1311.5079346,372.8713074,1315.8653564,374.1351624,1320.5239258,374.2738953z"/>
			</g>
		</g>
		<g>
			<g>
				<path style="fill:#3B4F45;" d="M1480.2198486,250.471344c3.0369873-11.5702209,4.6445313-23.0934906,4.7801514-34.3478088
					l0.0280762-2.3130035c0.0009766-0.0875854,0.0003662-0.176239-0.0018311-0.2649231
					c-0.1120605-4.7075195-1.258667-9.0125885-3.3677979-12.7458649l-102.7973633,8.3709106
					c-0.7409668,1.2536621-1.4139404,2.5491028-1.9956055,3.8929749c-0.4506836,0.9947662-0.8797607,1.9216156-1.2966309,2.7988129
					L1480.2198486,250.471344z"/>
			</g>
		</g>
		<g>
			<g>
				<path style="fill:#3B4F45;" d="M1462.9378662,187.5160522c-4.3831787-14.159256-11.8497314-26.9908142-21.8275146-37.3957062
					c-0.0150146-0.0153656-0.0300293-0.0307312-0.0456543-0.046814l-0.1898193-0.1944427
					c-0.2692871-0.2759247-0.5593262-0.5301971-0.8676758-0.7603302c-6.5202637-4.8639374-15.0026855-5.936554-22.699585-2.8744659
					c-3.2630615,1.2796021-6.1749268,3.1564636-8.6574707,5.5795898
					c-5.1820068,5.0580139-7.7950439,11.8608093-7.1801758,18.6836395c0.1593018,2.4791565,0.2978516,4.8821259,0.2731934,7.0411987
					c-0.0629883,5.1401825-0.5487061,10.1876373-1.4423828,15.0666351L1462.9378662,187.5160522z"/>
			</g>
		</g>
		<g>
			<g>
				<path style="fill:#3B4F45;" d="M1294.890625,351.5390015l6.4371338-62.1995544
					c-7.6722412,1.1361084-15.1270752,1.3865967-22.2220459,0.7337952
					c-6.4846191-0.634491-12.9227295,1.5178528-18.1292725,6.0645142c-0.0524902,0.0456238-0.1046143,0.0930176-0.1553955,0.13974
					c-0.1921387,0.1770935-0.3814697,0.3563232-0.5684814,0.5387878c-4.9615479,4.8427734-7.8502197,11.1965027-7.925293,17.4282227
					c-0.0657959,5.3704224,1.9924316,10.598114,5.6494141,14.3448486l0.1898193,0.1944275
					C1268.2054443,339.0689697,1280.5400391,346.7016907,1294.890625,351.5390015z"/>
			</g>
		</g>
	</g>
	<g>
		<g>
			<g>
				<path style="fill:#3B4F45;" d="M1404.4542236,1702.1591797c19.4365234-9.1340332,37.3602295-21.6398926,53.2685547-37.1673584
					c15.9105225-15.529541,28.8459473-33.1418457,38.4487305-52.352417
					c2.1868896-4.2618408,3.3731689-9.0369873,3.4317627-13.8127441c0.0136719-1.1564941-0.0533447-2.2998047-0.1799316-3.427002
					l-134.0374756-44.3271484c-0.8994141,0.7209473-1.772583,1.4923096-2.6140137,2.3134766
					c-0.791626,0.7727051-1.5588379,1.5948486-2.2779541,2.4418945c-0.0292969,0.0328369-0.0568848,0.06604-0.0842285,0.098877
					c-1.3127441,1.6009521-3.119751,3.3647461-4.7142334,4.9210205c-1.6101074,1.5715332-3.4464111,3.1888428-5.2331543,4.7561035
					c-0.8416748,0.6763916-1.661377,1.4018555-2.4366455,2.1584473c-0.7962646,0.7772217-1.550293,1.5899658-2.2593994,2.4335938
					l41.4493408,134.8310547C1392.94104,1705.7854004,1398.9420166,1704.8232422,1404.4542236,1702.1591797z"/>
			</g>
		</g>
		<g>
			<g>
				<path style="fill:#3B4F45;" d="M1332.5239258,1701.2739258c12.0614014,0.3125,24.439209-1.012085,36.885498-3.9367676
					l-32.2818604-105.008667c-0.9505615,0.4245605-1.8355713,0.7956543-2.6584473,1.1131592
					c-0.032959,0.0140381-0.06604,0.026001-0.098999,0.0393066c-1.392334,0.5592041-2.7368164,1.2182617-4.0411377,1.9532471
					l-10.576416,102.1968994C1323.5079346,1699.8713379,1327.8653564,1701.1351318,1332.5239258,1701.2739258z"/>
			</g>
		</g>
		<g>
			<g>
				<path style="fill:#3B4F45;" d="M1492.2198486,1577.4713135c3.0369873-11.5701904,4.6445313-23.0935059,4.7801514-34.3477783
					l0.0280762-2.3129883c0.0009766-0.0876465,0.0003662-0.1762695-0.0018311-0.2648926
					c-0.1120605-4.7075195-1.258667-9.0126953-3.3677979-12.7459717l-102.7973633,8.3709717
					c-0.7409668,1.2536621-1.4139404,2.5490723-1.9956055,3.8929443c-0.4506836,0.994751-0.8797607,1.9216309-1.2966309,2.7988281
					L1492.2198486,1577.4713135z"/>
			</g>
		</g>
		<g>
			<g>
				<path style="fill:#3B4F45;" d="M1474.9378662,1514.5161133c-4.3831787-14.1593018-11.8497314-26.9908447-21.8275146-37.395752
					c-0.0150146-0.0153809-0.0300293-0.0307617-0.0456543-0.046875l-0.1898193-0.1943359
					c-0.2692871-0.276001-0.5593262-0.5302734-0.8676758-0.760376c-6.5202637-4.8638916-15.0026855-5.9365234-22.699585-2.8745117
					c-3.2630615,1.2796631-6.1749268,3.1564941-8.6574707,5.5795898
					c-5.1820068,5.0581055-7.7950439,11.8608398-7.1801758,18.6837158c0.1593018,2.479126,0.2978516,4.8820801,0.2731934,7.0411377
					c-0.0629883,5.1402588-0.5487061,10.1876221-1.4423828,15.0666504L1474.9378662,1514.5161133z"/>
			</g>
		</g>
		<g>
			<g>
				<path style="fill:#3B4F45;" d="M1306.890625,1678.5389404l6.4371338-62.1994629
					c-7.6722412,1.1361084-15.1270752,1.3865967-22.2220459,0.7337646
					c-6.4846191-0.6345215-12.9227295,1.5178223-18.1292725,6.0644531
					c-0.0524902,0.0456543-0.1046143,0.0931396-0.1553955,0.1397705c-0.1921387,0.177124-0.3814697,0.3563232-0.5684814,0.5388184
					c-4.9615479,4.8427734-7.8502197,11.1965332-7.925293,17.4282227
					c-0.0657959,5.3703613,1.9924316,10.5981445,5.6494141,14.3448486l0.1898193,0.194458
					C1280.2054443,1666.0689697,1292.5400391,1673.7016602,1306.890625,1678.5389404z"/>
			</g>
		</g>
	</g>
	<g>
		<g>
			<g>
				<path style="fill:#3B4F45;" d="M546.7221069,777.4664307c10.9924316,18.4492798,25.1925049,35.0630493,42.2023315,49.3753662
					c17.012085,14.31427,35.8057861,25.4639282,55.8638916,33.1404419
					c4.4554443,1.7593994,9.3237915,2.4726563,14.0823364,2.0635376c1.1522827-0.0996094,2.2836304-0.2781982,3.3929443-0.5144653
					l30.9963379-137.7322388c-0.805481-0.824585-1.6585693-1.618103-2.5581665-2.375061
					c-0.8464966-0.7122192-1.7397461-1.3952637-2.6530762-2.0280762c-0.0355835-0.0259399-0.0713501-0.0501709-0.1066895-0.0740967
					c-1.7218018-1.1497803-3.6539917-2.7755127-5.3587646-4.2099609c-1.7216187-1.4486084-3.5108032-3.1179199-5.2454834-4.7426147
					c-0.7554932-0.7714844-1.5576172-1.5162354-2.3865356-2.2136841c-0.8514404-0.7164307-1.7340698-1.3872681-2.6430664-2.010437
					l-130.1271362,54.4460449C541.9865723,766.3634033,543.5313721,772.241394,546.7221069,777.4664307z"/>
			</g>
		</g>
		<g>
			<g>
				<path style="fill:#3B4F45;" d="M540.5634766,705.7948608c0.8694458,12.0339966,3.3990479,24.2227783,7.527832,36.3230591
					l101.3452148-42.4038696c-0.515686-0.90448-0.9715576-1.7489014-1.368042-2.5367432
					c-0.0172119-0.0314941-0.0323486-0.0631714-0.0488892-0.0947266c-0.692749-1.3308716-1.4801636-2.6043701-2.3393555-3.8305664
					l-102.741394-0.5238037C541.0769653,696.6848145,540.2456055,701.1450806,540.5634766,705.7948608z"/>
			</g>
		</g>
		<g>
			<g>
				<path style="fill:#3B4F45;" d="M679.4008789,852.6077881c11.8118896,1.8900757,23.4371948,2.3620605,34.6507568,1.3955688
					l2.3046265-0.1984253c0.0872803-0.0075073,0.175415-0.0169067,0.2634888-0.0276489
					c4.6739502-0.5723267,8.8461304-2.1347046,12.3550415-4.5991211l-18.3912964-101.4845581
					c-1.3201294-0.6147461-2.6752319-1.1577148-4.0695801-1.6051025c-1.0341187-0.3511963-1.9985352-0.6875-2.9122925-1.0164185
					L679.4008789,852.6077881z"/>
			</g>
		</g>
		<g>
			<g>
				<path style="fill:#3B4F45;" d="M740.3625488,829.2473755c13.6623535-5.7478027,25.7015991-14.4343262,35.0800171-25.3825073
					c0.0137939-0.0164795,0.0276489-0.0328979,0.0421143-0.0501099l0.1749268-0.2078857
					c0.24823-0.2950439,0.4729004-0.6085815,0.6717529-0.9379883c4.2024536-6.9649048,4.4397583-15.5115967,0.6390991-22.8719482
					c-1.5928345-3.1221313-3.7456055-5.8362427-6.4000854-8.0697632
					c-5.5408936-4.6621704-12.5667725-6.5968628-19.2966919-5.3171997c-2.4516602,0.401123-4.8295288,0.774292-6.9806519,0.9609985
					c-5.1216431,0.4403687-10.1924438,0.4509888-15.135437,0.0390625L740.3625488,829.2473755z"/>
			</g>
		</g>
		<g>
			<g>
				<path style="fill:#3B4F45;" d="M560.680542,678.0595093l62.5309448,0.3188477
					c-1.8815308-7.5241699-2.8604126-14.9187622-2.9050903-22.0435181
					c-0.0031738-6.5155029-2.7752686-12.7120972-7.8096924-17.4487305
					c-0.0505371-0.0477905-0.1027832-0.0950317-0.1542358-0.1409302c-0.1950684-0.1738892-0.3919678-0.3448486-0.5918579-0.5130005
					c-5.3051147-4.4638062-11.9110107-6.7167969-18.1201782-6.1817017
					c-5.3510742,0.460144-10.3522339,3.0201416-13.7230835,7.0262451l-0.1749268,0.2079468
					C570.479126,650.2819824,564.09021,663.3044434,560.680542,678.0595093z"/>
			</g>
		</g>
	</g>
	<g>
		<g>
			<g>
				<path style="fill:#3B4F45;" d="M1352.7220459,989.4664307c10.9925537,18.4492798,25.1925049,35.0629883,42.2023926,49.3753662
					c17.012085,14.314209,35.8057861,25.4638672,55.8638916,33.1403809
					c4.4554443,1.7593994,9.3237305,2.4726563,14.0822754,2.0635986c1.1523438-0.0996094,2.2836914-0.2781982,3.3929443-0.5144043
					l30.99646-137.7322998c-0.805542-0.824585-1.6586914-1.618103-2.5582275-2.375061
					c-0.8464355-0.7122192-1.7397461-1.3952637-2.6530762-2.0280762c-0.0355225-0.0259399-0.0712891-0.0501709-0.1066895-0.0740967
					c-1.7218018-1.1497803-3.6539307-2.7755127-5.3587646-4.2099609c-1.7216797-1.4486084-3.5108643-3.1179199-5.2454834-4.7426147
					c-0.7554932-0.7714844-1.5576172-1.5162354-2.3865967-2.2136841c-0.8514404-0.7164307-1.7340088-1.3872681-2.6429443-2.010437
					l-130.1271973,54.4460449C1347.9865723,978.3634033,1349.5313721,984.241394,1352.7220459,989.4664307z"/>
			</g>
		</g>
		<g>
			<g>
				<path style="fill:#3B4F45;" d="M1346.5634766,917.7948608c0.8693848,12.0339966,3.3990479,24.2227783,7.527832,36.3230591
					l101.3452148-42.4038696c-0.515625-0.90448-0.9715576-1.7489014-1.368042-2.5367432
					c-0.0172119-0.0314941-0.0323486-0.0631714-0.0489502-0.0947266c-0.692749-1.3308716-1.4801025-2.6043701-2.3393555-3.8305664
					l-102.741333-0.5238037C1347.0770264,908.6848145,1346.2456055,913.1450806,1346.5634766,917.7948608z"/>
			</g>
		</g>
		<g>
			<g>
				<path style="fill:#3B4F45;" d="M1485.4008789,1064.6077881c11.8118896,1.8900146,23.4371338,2.3620605,34.6507568,1.3956299
					l2.3046875-0.1984863c0.0871582-0.0075684,0.175415-0.0168457,0.2634277-0.02771
					c4.6739502-0.5722656,8.8461914-2.1346436,12.3551025-4.5991211l-18.3913574-101.4844971
					c-1.3201904-0.6147461-2.675293-1.1577148-4.0695801-1.6051025c-1.0340576-0.3511963-1.9985352-0.6875-2.9122314-1.0164185
					L1485.4008789,1064.6077881z"/>
			</g>
		</g>
		<g>
			<g>
				<path style="fill:#3B4F45;" d="M1546.3625488,1041.2473145c13.6623535-5.7476807,25.7015381-14.4343262,35.0799561-25.3824463
					c0.013916-0.0164795,0.02771-0.0328979,0.0421143-0.0501099l0.1749268-0.2078857
					c0.248291-0.2950439,0.4729004-0.6085815,0.6717529-0.9379883c4.2025146-6.9649048,4.4398193-15.5115967,0.6391602-22.8719482
					c-1.5927734-3.1221313-3.7456055-5.8362427-6.4001465-8.0697632
					c-5.5408936-4.6621704-12.5666504-6.5968628-19.2966309-5.3171997c-2.4516602,0.401123-4.8294678,0.774292-6.9805908,0.9609985
					c-5.1217041,0.4403687-10.1925049,0.4509888-15.135498,0.0390625L1546.3625488,1041.2473145z"/>
			</g>
		</g>
		<g>
			<g>
				<path style="fill:#3B4F45;" d="M1366.680542,890.0595093l62.5310059,0.3188477
					c-1.8815918-7.5241699-2.8604736-14.9187622-2.9051514-22.0435181
					c-0.0031738-6.5155029-2.7752686-12.7120972-7.8096924-17.4487305
					c-0.0505371-0.0477905-0.1027832-0.0950317-0.1542969-0.1409302c-0.1949463-0.1738892-0.3919678-0.3448486-0.5917969-0.5130005
					c-5.3050537-4.4638062-11.9110107-6.7167969-18.1202393-6.1817017
					c-5.3510742,0.460144-10.3521729,3.0201416-13.7230225,7.0262451l-0.1749268,0.2079468
					C1376.479126,862.2819824,1370.09021,875.3044434,1366.680542,890.0595093z"/>
			</g>
		</g>
	</g>
	<g>
		<g>
			<g>
				<path style="fill:#3B4F45;" d="M86.7220917,1410.4664307c10.9924698,18.4493408,25.1924973,35.0629883,42.2023163,49.3753662
					c17.0121155,14.314209,35.8058167,25.4638672,55.8639526,33.1403809
					c4.4554291,1.7593994,9.3237457,2.4726563,14.0823059,2.0635986c1.152298-0.0996094,2.2835999-0.2781982,3.3929443-0.5144043
					l30.9963379-137.7322998c-0.8054504-0.824585-1.6585846-1.6181641-2.5581818-2.3751221
					c-0.8464813-0.7121582-1.7397156-1.3952637-2.6530762-2.0279541c-0.035553-0.026001-0.0713196-0.050293-0.1066895-0.0740967
					c-1.721756-1.1497803-3.6539459-2.7756348-5.3587494-4.210083c-1.7216339-1.4486084-3.5108185-3.1177979-5.2454681-4.7425537
					c-0.7555237-0.7714844-1.557663-1.5162354-2.3865509-2.213623c-0.8514557-0.7164307-1.7340698-1.3873291-2.6430511-2.010498
					l-130.1271362,54.4460449C81.9865875,1399.3634033,83.5313873,1405.241333,86.7220917,1410.4664307z"/>
			</g>
		</g>
		<g>
			<g>
				<path style="fill:#3B4F45;" d="M80.5634842,1338.7947998c0.8694305,12.0340576,3.3990326,24.2227783,7.5277939,36.3231201
					l101.3452301-42.4038086c-0.5156555-0.904541-0.9715729-1.7490234-1.3680115-2.5368652
					c-0.0172424-0.0314941-0.0323792-0.0631104-0.0489044-0.0946045c-0.6927643-1.3309326-1.4801636-2.6043701-2.3393707-3.8305664
					l-102.7413559-0.5239258C81.076973,1329.6848145,80.2456284,1334.1450195,80.5634842,1338.7947998z"/>
			</g>
		</g>
		<g>
			<g>
				<path style="fill:#3B4F45;" d="M219.4008789,1485.6077881c11.8119049,1.8900146,23.4371796,2.3620605,34.6507416,1.3956299
					l2.3046417-0.1984863c0.0872498-0.0075684,0.175415-0.0168457,0.2634583-0.02771
					c4.6739807-0.5722656,8.8461609-2.1346436,12.3551025-4.5991211l-18.3913269-101.4844971
					c-1.3201599-0.6147461-2.6752472-1.1577148-4.0695953-1.6051025c-1.0341034-0.3511963-1.9984894-0.6875-2.912262-1.0164795
					L219.4008789,1485.6077881z"/>
			</g>
		</g>
		<g>
			<g>
				<path style="fill:#3B4F45;" d="M280.3625793,1462.2473145c13.662323-5.7476807,25.7015381-14.4343262,35.0799561-25.3824463
					c0.0138245-0.0164795,0.0276489-0.0328369,0.0421448-0.0500488l0.1749268-0.2078857
					c0.24823-0.2950439,0.4729004-0.6086426,0.6717529-0.9379883c4.2024536-6.9649658,4.4397583-15.5117188,0.6390991-22.8719482
					c-1.592804-3.1221924-3.745636-5.8363037-6.4000854-8.0698242c-5.5408936-4.6622314-12.5667725-6.5968018-19.2966614-5.3171387
					c-2.4516602,0.401123-4.8295288,0.774292-6.9806824,0.9609375c-5.1216431,0.4403076-10.1924133,0.4509277-15.1354675,0.0390625
					L280.3625793,1462.2473145z"/>
			</g>
		</g>
		<g>
			<g>
				<path style="fill:#3B4F45;" d="M100.6805573,1311.0595703l62.5309448,0.3187256
					c-1.8815308-7.5241699-2.8604126-14.9187012-2.9050903-22.043457
					c-0.0031891-6.5155029-2.7752838-12.7121582-7.8096924-17.4487305
					c-0.0505524-0.0477295-0.1028137-0.0949707-0.1542664-0.1409912c-0.1950531-0.1738281-0.3919678-0.3447266-0.5918274-0.5129395
					c-5.3050995-4.4637451-11.9110565-6.7167969-18.1202087-6.1816406
					c-5.3510742,0.460083-10.3522415,3.0200195-13.7230682,7.0262451l-0.1749268,0.2078857
					C110.4790955,1283.2819824,104.0901947,1296.3044434,100.6805573,1311.0595703z"/>
			</g>
		</g>
	</g>
</g>
<g id="Слой_5">
	<g>
		<g>
			<g>
				<path style="fill:#3B4F45;" d="M1143.0904541,1176.4481201l-6.050415-2.083252l-18.4781494-37.8845215l-63.2749023,30.8621826
					l15.6722412,32.131958l-2.9464111,8.5574951l-8.5576172-2.9464111l-15.6722412-32.131958l-57.5222168,28.0563965
					l15.6722412,32.1318359l-2.9464722,8.5576172l-8.5575562-2.9465332l-15.6723022-32.1318359l-63.2755737,30.8625488
					l18.4781494,37.8846436l-2.083252,6.050293c-0.5564575,1.6032715-0.447998,3.3586426,0.2983398,4.8887939
					l75.7525024,155.3106689c4.6405029,9.5141602,16.1595459,13.4802246,25.673645,8.8397217l184.0721436-89.7807617
					c9.5141602-4.6405029,13.4803467-16.1595459,8.8398438-25.6737061l-75.7525635-155.3106689
					C1146.0129395,1178.1627197,1144.6964111,1176.996582,1143.0904541,1176.4481201z M1211.0076904,1340.6147461
					c1.548584,3.1749268,0.2285156,7.0089111-2.9465332,8.5574951l-184.0720825,89.7808838
					c-3.1749268,1.548584-7.0089722,0.2283936-8.5575562-2.9465332l-74.5908813-152.9290771l2.083252-6.050415l3.8093872-11.0654297
					l19.6233521,6.7565918c3.3458862,1.1525879,6.9819336-0.6208496,8.1335449-3.9671631l6.7565918-19.623291l19.6143188,6.75354
					l0.0089722,0.0030518c3.3459473,1.1525879,6.9819946-0.6208496,8.133606-3.9671631l0.0031128-0.0090332l6.753479-19.6142578
					l19.623291,6.7565918c3.3466797,1.1522217,6.9819336-0.6208496,8.1335449-3.9671631l6.7565918-19.623291l19.6143799,6.753418
					l0.0083008,0.003418c3.3465576,1.1523438,6.9819336-0.6208496,8.1335449-3.967041l0.0031738-0.0090332l6.753418-19.6143799
					l19.623291,6.7565918c1.6688232,0.574585,3.416626,0.4197998,4.8887939-0.2983398
					c1.472168-0.7180176,2.6702881-2,3.244873-3.6688232l6.7572021-19.6235352l11.0657959,3.8100586l6.050293,2.0831299
					L1211.0076904,1340.6147461z"/>
				<path style="fill:#3B4F45;" d="M1080.2424316,1254.8605957c-11.6079102,5.6617432-17.4644775,15.8455811-19.6243896,25.6358643
					c-9.0447998-4.3251953-20.6815186-5.9766846-32.2833252-0.3179932
					c-13.1151733,6.3969727-20.4526367,18.7266846-19.6195679,32.9750977
					c0.9591675,16.5650635,12.8235474,31.6204834,29.5132446,37.4864502
					c8.340332,2.9390869,58.96875,20.0788574,62.3387451,20.8701172c1.4881592,0.3497314,2.9868164,0.152832,4.2756348-0.4758301
					c1.4493408-0.7067871,2.6265869-1.9577637,3.2124023-3.5744629c0.1796875-0.5074463,18.2532959-50.6091309,21.666626-61.5523682
					c5.4852295-17.5286865,0.8768311-35.8527832-11.7191162-46.6853027
					C1107.4177246,1250.1224365,1093.2995605,1248.4920654,1080.2424316,1254.8605957z"/>
				<path style="fill:#3B4F45;" d="M998.8706665,1080.8726807c-8.0137329-7.0427246-14.7972412-15.7393799-19.7576904-25.9093018
					c-1.5515137-3.1810303-5.3765259-4.4980469-8.5575562-2.9465332l-46.0181885,22.4453125l22.4453125,46.0181885
					l57.5222168-28.0563965L998.8706665,1080.8726807L998.8706665,1080.8726807z"/>
				<path style="fill:#3B4F45;" d="M913.0318604,1080.0721436l-46.0181885,22.4453125
					c-9.5141602,4.6405029-13.4802856,16.1595459-8.8397827,25.6737061l14.0283203,28.7614746l63.2749634-30.8623047
					L913.0318604,1080.0721436z"/>
				<path style="fill:#3B4F45;" d="M1098.9224854,1096.2148438c-1.5515137-3.1810303-5.3764648-4.4980469-8.5574951-2.9465332
					c-21.1395264,10.310791-44.5402832,10.7587891-65.0581055,3.2495117l-3.6873169,1.7984619l28.0563354,57.5222168
					l63.2749023-30.8621826L1098.9224854,1096.2148438z"/>
				
					<rect x="963.3810425" y="1114.7167969" transform="matrix(0.8987885 -0.4383824 0.4383824 0.8987885 -401.9564819 552.418396)" style="fill:#3B4F45;" width="63.9997559" height="63.9997482"/>
				
					<rect x="888.2774658" y="1149.7874756" transform="matrix(0.8987885 -0.4383824 0.4383824 0.8987885 -424.6083069 524.4467773)" style="fill:#3B4F45;" width="70.4002457" height="63.9997482"/>
			</g>
		</g>
	</g>
	<g>
		<g>
			<g>
				<path style="fill:#3B4F45;" d="M1415.9005127,695.2715454l4.4711914-1.0076904l25.5196533,16.1322632l26.9440918-42.6228638
					l-21.6445313-13.6825562l-1.425293-6.3240356l6.3240967-1.4252319l21.6444092,13.6825562l24.4945068-38.7477417
					l-21.6445313-13.6825562l-1.425293-6.3240356l6.3240967-1.4252319l21.6444092,13.6825562l26.944458-42.62323
					l-25.5196533-16.1322632l-1.0076904-4.4711914c-0.2642822-1.1864624-0.9910889-2.2153931-2.0218506-2.8669434
					l-104.6192627-66.1353455c-6.4088135-4.0513611-14.9213867-2.132843-18.9726563,4.276001l-78.3826904,123.9933777
					c-4.0513916,6.4088745-2.1329346,14.9213867,4.276001,18.9727173l104.6192627,66.1353149
					C1413.4742432,695.3265991,1414.7154541,695.541748,1415.9005127,695.2715454z M1312.7229004,620.7904053
					c-2.1386719-1.3519897-2.7772217-4.1853027-1.425293-6.3240356l78.3826904-123.9933472
					c1.3520508-2.1387024,4.1853027-2.7772522,6.3240967-1.4252625l103.0150146,65.1211853l1.0076904,4.4711914l1.8432617,8.177063
					l-14.5014648,3.2683105c-2.4729004,0.5569458-4.0212402,3.0062256-3.463501,5.4788818l3.2683105,14.5015259
					l-14.494873,3.2668457l-0.0067139,0.0014648c-2.4729004,0.5569458-4.0211182,3.0062256-3.463501,5.4788818l0.0014648,0.0067139
					l3.2668457,14.494873l-14.5015869,3.2682495c-2.4731445,0.5574341-4.0211182,3.0062256-3.463501,5.4788818l3.2683105,14.5015869
					l-14.494873,3.2667847l-0.0063477,0.0010376c-2.4731445,0.557373-4.0211182,3.0062256-3.463501,5.4788818l0.0014648,0.0067139
					l3.2668457,14.494873l-14.5015869,3.2682495c-1.2331543,0.2779541-2.2399902,1.0301514-2.8669434,2.0218506
					c-0.6268311,0.9916992-0.8745117,2.2238159-0.5965576,3.4570313l3.2680664,14.5020142l-8.1776123,1.8430176
					l-4.4711914,1.0076904L1312.7229004,620.7904053z"/>
				<path style="fill:#3B4F45;" d="M1424.6876221,623.8320923c4.9429932-7.8191528,4.6789551-16.2295532,2.3104248-23.0087891
					c7.1398926-0.7684326,14.8529053-4.1417847,19.793335-11.9569092
					c5.5847168-8.8345337,5.4155273-19.1099854-0.4549561-27.4794922
					c-6.8192139-9.7338257-19.7159424-14.4431763-32.0944824-11.7362671
					c-6.1888428,1.3480835-43.493042,9.9584351-45.8444824,10.7446289
					c-1.0385742,0.3469849-1.8776855,1.0310059-2.4265137,1.8991699c-0.6171875,0.9763184-0.8637695,2.1817017-0.6123047,3.3873901
					c0.0814209,0.3768921,7.9245605,37.7115479,9.9631348,45.6651001
					c3.2547607,12.746521,12.9599609,22.178833,24.7130127,24.0393677
					C1409.9102783,636.9477539,1419.1275635,632.6275635,1424.6876221,623.8320923z"/>
				<path style="fill:#3B4F45;" d="M1539.7609863,699.234436c7.5344238,1.2756348,14.9415283,4.0222778,21.7921143,8.3529053
					c2.1428223,1.3546143,4.9694824,0.7175293,6.3240967-1.4252319l19.5957031-30.9984741l-30.9984131-19.5957642
					l-24.4945068,38.7477417L1539.7609863,699.234436L1539.7609863,699.234436z"/>
				<path style="fill:#3B4F45;" d="M1592.3728027,667.4144897l19.5957031-30.9984741
					c4.0513916-6.4088135,2.1329346-14.9213867-4.276001-18.9727173l-19.3740234-12.2473755l-26.9440918,42.6228027
					L1592.3728027,667.4144897z"/>
				<path style="fill:#3B4F45;" d="M1473.0146484,727.5421753c2.1428223,1.3546143,4.9694824,0.7175293,6.3239746-1.4252319
					c9.0018311-14.2398682,23.0936279-23.3204346,38.4237061-26.4666748l1.5700684-2.4838257l-38.7476807-24.4944458
					l-26.9440918,42.6228027L1473.0146484,727.5421753z"/>
				
					<rect x="1494.1851807" y="634.8751221" transform="matrix(0.5343394 -0.84527 0.84527 0.5343394 150.4414978 1588.6732178)" style="fill:#3B4F45;" width="45.8406563" height="45.8406525"/>
				
					<rect x="1522.5113525" y="586.4401245" transform="matrix(0.5343394 -0.84527 0.84527 0.5343394 205.6398926 1591.9997559)" style="fill:#3B4F45;" width="50.4250946" height="45.8406525"/>
			</g>
		</g>
	</g>
	<g>
		<g>
			<g>
				<path style="fill:#3B4F45;" d="M310.3325195,313.0666199l-1.3494568-5.3324585l18.5519714-31.1229553l-51.9816284-30.9855499
					l-15.7348938,26.3970184l-7.5421295,1.9086609l-1.9086609-7.5421448l15.7349091-26.3970032l-47.2556763-28.168457
					l-15.7348938,26.3970032l-7.54216,1.9086609l-1.9086456-7.54216l15.7348785-26.3970032l-51.9821777-30.9858704
					l-18.5519714,31.1229706l-5.3324432,1.3494568c-1.4151001,0.3543549-2.6266174,1.2586212-3.375946,2.5157013
					L54.0984764,337.7832947c-4.6590424,7.81604-2.089859,17.9682922,5.726181,22.6273193l151.2189178,90.1395264
					c7.81604,4.6590271,17.9682922,2.0898743,22.6273193-5.7261963l76.0551453-127.5907898
					C310.4747925,315.9757385,310.6939392,314.4799194,310.3325195,313.0666199z M224.2195435,439.1901245
					c-1.5547791,2.6083069-4.9338379,3.4634094-7.5421448,1.9086609L65.4584885,350.959259
					c-2.6083031-1.5547791-3.4634285-4.9338379-1.9086571-7.5421448l74.8888855-125.6343079l5.3324432-1.3494568l9.7521667-2.468399
					l4.3767395,17.2948761c0.7458496,2.949173,3.7329407,4.7297363,6.6819,3.9829865l17.2948761-4.3767242l4.3747101,17.286911
					l0.0020142,0.0079651c0.7458649,2.949173,3.7329559,4.7297363,6.6819,3.9829865l0.0079651-0.0020142l17.2869263-4.3747101
					l4.3767242,17.2948761c0.7464142,2.9495239,3.7329407,4.7297363,6.6819,3.9829712l17.2948761-4.376709l4.3747253,17.2869263
					l0.0014496,0.0076294c0.7464294,2.9494934,3.7329559,4.7297363,6.6819153,3.9829712l0.0079498-0.0020142l17.2869263-4.3746948
					l4.3767395,17.2948608c0.3721924,1.4707947,1.3062439,2.6549988,2.515686,3.375946s2.6954346,0.979248,4.1661987,0.6070557
					l17.2954407-4.3764038l2.4680786,9.7527466l1.3494568,5.332428L224.2195435,439.1901245z"/>
				<path style="fill:#3B4F45;" d="M224.3500519,304.7697449c-9.536087-5.6843262-19.6177826-5.103302-27.6763916-2.0487061
					c-1.1463013-8.5415344-5.4357452-17.6889648-14.9668579-23.3703308
					c-10.7743225-6.4224243-23.0965576-5.8965454-32.9529877,1.4093018
					c-11.4634094,8.4869995-16.707962,24.1072388-13.0714569,38.8728638
					c1.8117828,7.3823242,13.3140106,51.8658447,14.3311005,54.6622009c0.4489136,1.2350769,1.295929,2.2203064,2.3547516,2.8514404
					c1.1906281,0.7097168,2.6445313,0.9676819,4.0831299,0.6280823c0.4495544-0.1095276,44.9936829-10.6922607,54.4715576-13.38797
					c15.1898041-4.3053284,26.2007751-16.2450867,28.0635681-30.4038391
					C240.5493927,322.0860596,235.0767517,311.1637878,224.3500519,304.7697449z"/>
				<path style="fill:#3B4F45;" d="M311.1943054,164.3458862c1.2936707-9.0790558,4.3560181-18.0517731,9.3362427-26.4066467
					c1.5577393-2.6132813,0.7046204-5.9843903-1.9086609-7.5421448l-37.8048706-22.5349579l-22.5349426,37.8048706
					l47.2556458,28.168457l5.6566162-9.489563L311.1943054,164.3458862z"/>
				<path style="fill:#3B4F45;" d="M271.3663025,102.2272034l-37.8048553-22.5349655
					c-7.81604-4.6590347-17.9682922-2.0898514-22.6273193,5.7261887l-14.0843964,23.6281128l51.9816284,30.9855347
					L271.3663025,102.2272034z"/>
				<path style="fill:#3B4F45;" d="M347.2529297,243.5322876c1.5577393-2.6132813,0.7046204-5.9844055-1.9086609-7.5421448
					c-17.3665161-10.351944-28.7033997-26.9726563-32.9597473-45.2652893l-3.0291748-1.8056488l-28.1684265,47.255661
					l51.9816284,30.9855347L347.2529297,243.5322876z"/>
				
					<rect x="234.6846313" y="165.3209991" transform="matrix(0.5120217 -0.8589725 0.8589725 0.5120217 -37.6901703 319.3114014)" style="fill:#3B4F45;" width="55.014183" height="55.0141869"/>
				
					<rect x="175.614624" y="127.3592606" transform="matrix(0.5120217 -0.8589725 0.8589725 0.5120217 -36.2699242 251.3897858)" style="fill:#3B4F45;" width="55.014183" height="60.5160484"/>
			</g>
		</g>
	</g>
</g>
</svg>
