<?xml version="1.0" encoding="utf-8"?>
<!-- Generator: Adobe Illustrator 23.1.0, SVG Export Plug-In . SVG Version: 6.00 Build 0)  -->
<svg version="1.1" id="Слой_1" xmlns="http://www.w3.org/2000/svg" xmlns:xlink="http://www.w3.org/1999/xlink" x="0px" y="0px"
	 viewBox="0 0 800 800" enable-background="new 0 0 800 800" xml:space="preserve">
<path fill="#EBDDAB" d="M539.666687,66.6666641H260.333313C139,66.6666641,66.6666641,139,66.6666641,260.333313v279
	c0,121.666687,72.3333359,194,193.6666565,194h279c121.333313,0,193.666626-72.333313,193.666626-193.666626V260.333313
	C733.333313,139,661,66.6666641,539.666687,66.6666641z M566.666626,575h-333.333313c-13.6666718,0-25-11.333374-25-25
	c0-13.666687,11.3333282-25,25-25h333.333313c13.666687,0,25,11.333313,25,25C591.666626,563.666626,580.333313,575,566.666626,575z
	 M566.666626,424.9999695h-333.333313c-13.6666718,0-25-11.333313-25-24.9999695c0-13.666687,11.3333282-25,25-25h333.333313
	c13.666687,0,25,11.333313,25,25C591.666626,413.6666565,580.333313,424.9999695,566.666626,424.9999695z M566.666626,275
	h-333.333313c-13.6666718,0-25-11.3333435-25-25.0000153c0-13.6666565,11.3333282-25,25-25h333.333313
	c13.666687,0,25,11.3333435,25,25C591.666626,263.6666565,580.333313,275,566.666626,275z"/>
</svg>
