<?xml version="1.0" encoding="utf-8"?>
<!-- Generator: Adobe Illustrator 23.1.0, SVG Export Plug-In . SVG Version: 6.00 Build 0)  -->
<svg version="1.1" id="Слой_1" xmlns="http://www.w3.org/2000/svg" xmlns:xlink="http://www.w3.org/1999/xlink" x="0px" y="0px"
	 viewBox="0 0 800 800" enable-background="new 0 0 800 800" xml:space="preserve">
<path fill="#FFFFFF" d="M539.666687,66.6666641H260.333313C139,66.6666641,66.6666641,139,66.6666641,260.333313v279
	c0,121.666687,72.3333359,194,193.6666565,194h279c121.333313,0,193.666626-72.333313,193.666626-193.666626V260.333313
	C733.333313,139,661,66.6666641,539.666687,66.6666641z M533.333313,424.9999695H424.9999695V533.333313
	c0,13.666687-11.333313,25-24.9999695,25c-13.666687,0-25-11.333313-25-25V424.9999695H266.6666565
	c-13.6666565,0-25-11.333313-25-24.9999695c0-13.666687,11.3333435-25,25-25H375V266.6666565c0-13.6666565,11.333313-25,25-25
	c13.6666565,0,24.9999695,11.3333435,24.9999695,25V375H533.333313c13.666687,0,25,11.333313,25,25
	C558.333313,413.6666565,547,424.9999695,533.333313,424.9999695z"/>
</svg>
