<?xml version="1.0" encoding="utf-8"?>
<!-- Generator: Adobe Illustrator 23.1.0, SVG Export Plug-In . SVG Version: 6.00 Build 0)  -->
<svg version="1.1" id="Слой_1" xmlns="http://www.w3.org/2000/svg" xmlns:xlink="http://www.w3.org/1999/xlink" x="0px" y="0px"
	 viewBox="0 0 800 800" enable-background="new 0 0 800 800" xml:space="preserve">
<path fill="#EBDDAB" d="M560.6766357,66.6666641H239.3436432c-70.9999847,0-128.6666412,58-128.6666412,128.6666565V665
	c0,60,43,85.333313,95.6666565,56.333313L369.0099792,631c17.333313-9.666687,45.3333435-9.666687,62.3333435,0
	l162.666626,90.333313c52.666687,29.333313,95.666687,4,95.666687-56.333313v-469.666687
	C689.3433228,124.6666641,631.6766357,66.6666641,560.6766357,66.6666641z M483.3433228,379.9999695H316.6769714
	c-13.6666565,0-24.9999695-11.333313-24.9999695-25c0-13.6666565,11.333313-25,24.9999695-25h166.6663513
	c13.6666565,0,25,11.3333435,25,25C508.3433228,368.6666565,497.0099792,379.9999695,483.3433228,379.9999695z"/>
</svg>
