<?xml version="1.0" encoding="utf-8"?>
<!-- Generator: Adobe Illustrator 23.1.0, SVG Export Plug-In . SVG Version: 6.00 Build 0)  -->
<svg version="1.1" id="Слой_1" xmlns="http://www.w3.org/2000/svg" xmlns:xlink="http://www.w3.org/1999/xlink" x="0px" y="0px"
	 viewBox="0 0 2000 2000" enable-background="new 0 0 2000 2000" xml:space="preserve">
<g id="Logo">
	<path fill="#EBDDAB" d="M505.6271362,1492.0494385c-0.9403381-2.286499-1.3813782-4.3275146-2.4932556-5.8916016
		c-4.2784119-6.0184326-4.2645264-18.7338867-0.0509644-24.4550781c0.940979-1.2775879,0.2799988-3.9061279,1.3222656-4.90979
		c6.1470337-5.9185791,12.5523987-11.5714111,18.9500427-17.223877c0.7955322-0.7028809,2.1129761-0.7781982,3.0947876-1.3156738
		c1.5841064-0.8669434,3.1431885-1.8016357,4.6187744-2.8411865c3.4470825-2.4283447,6.6047363-5.3924561,10.3147583-7.2885742
		c4.0587158-2.074707,6.4002686-5.7739258,5.8092041-9.2513428c-0.4871826-2.8659668-4.1062012-5.6320801-6.9346313-7.5712891
		c-4.8022461-3.2919922-10.425415-2.9923096-16.1252441-2.8615723c-5.4574585,0.1253662-11.026062-0.8430176-16.4052734-1.9898682
		c-6.9184875-1.4750977-13.6589355-3.7717285-20.5570984-5.3634033c-2.2745667-0.5247803-4.8173828,0.2507324-7.2082214,0.0617676
		c-4.1248169-0.3259277-8.3722839-0.4398193-12.2962952-1.5793457c-3.7582397-1.0913086-7.2369995-3.2540283-10.7113953-5.1757813
		c-2.2686768-1.2547607-4.3094177-2.9216309-6.4570618-4.3966064c-0.1142273-0.0783691-0.2911072-0.1574707-0.4088745-0.1256104
		c-7.6610107,2.0695801-10.3021545-5.5791016-15.6112671-8.0360107
		c-8.4044189-3.8896484-11.3292847-12.5859375-16.8527222-18.9910889
		c-2.7694702-3.2115479-5.5524292-6.6026611-7.3883362-10.3710938c-1.6493835-3.385498-2.2712097-7.355957-2.8862305-11.1430664
		c-1.1661987-7.1811523-2.2638245-14.3924561-2.914917-21.6337891c-0.9487915-10.5523682,2.0585632-19.517334,11.3071289-25.7756348
		c1.4585266-0.9868164,2.2045898-3.0266113,3.5863342-5.0220947c0.7675476-0.262207,2.276123-0.6876221,3.7140503-1.2835693
		c8.1798401-3.3892822,16.4153442-6.6575928,24.4907227-10.2816162c7.8807373-3.5366211,16.1871338-3.0716553,24.4654846-3.4595947
		c2.5798035-0.1208496,5.0878906-1.4688721,7.6616516-2.1269531c1.9164124-0.4902344,4.1257324-1.5324707,5.7860107-1.0065918
		c4.8500977,1.5357666,8.5640564-1.0671387,10.3146362-4.2209473c1.4542236-2.619873,0.9589539-7.2318115-0.3532715-10.2244873
		c-1.3449402-3.0672607-4.7543945-5.2176514-7.2194824-7.8078613c-4.264801-4.4814453-8.0983276-9.4807129-12.8446045-13.3693848
		c-6.0800171-4.9815674-9.0396423-11.8134766-11.9021912-18.5048828c-1.8176575-4.2490234-1.2987366-9.4926758-1.8623962-14.2861328
		c-0.1673584-1.4233398-0.5780334-2.8253174-0.662262-4.2497559c-0.3536377-5.9847412-0.8926086-11.975708-0.8575745-17.9614258
		c0.039978-6.8347168-2.2750244-12.8609619-5.0385132-18.9123535c-1.8800964-4.1165771-3.3561401-8.4475098-4.6677246-12.7867432
		c-1.7751465-5.8737793-3.2935181-11.8292236-4.7542725-17.7906494c-0.3660278-1.4938965-0.53479-3.3083496-0.0246887-4.6917725
		c1.3394165-3.6330566,3.3966675-6.6555176,2.9604797-11.1925049c-0.3230896-3.3605957,3.0830994-6.9608154,4.3488159-10.6201172
		c2.0669556-5.9760742,7.8948975-8.3546143,11.5980835-12.7567139c7.3483582-8.7354736,17.3779297-12.8903809,28.1298523-15.6778564
		c1.7780457-0.4609375,3.400116-1.5031738,5.1673889-2.0324707c1.4902954-0.446167,3.0813293-0.5817871,4.6376953-0.7746582
		c1.9429932-0.2407227,3.9412537-0.2037354,5.8346863-0.6390381c2.96521-0.6818848,5.8429565-1.7359619,8.7935791-2.4926758
		c4.3877563-1.1252441,8.8102417-2.1147461,13.2064819-3.2081299c0.3786011-0.0941162,0.7307739-0.4868164,0.9951172-0.8199463
		c5.236145-6.5985107,11.6966553-12.0333252,14.3973999-20.8045654c1.6864624-5.4768066,6.4051514-10.2275391,10.4653931-14.6608887
		c1.5553589-1.6984863,5.045166-1.6904297,7.6875-2.3157959c7.3497314-1.7390137,14.6620483-3.7160645,22.0903931-5.024353
		c12.1676636-2.1425781,24.4190674-3.8071289,36.6276245-5.7213135c5.802002-0.90979,11.6047974-2.8243408,17.375-2.7064819
		c10.5643311,0.2156372,20.5340576-5.7231445,31.3641968-2.5181274c2.0194702,0.5974731,4.6307983-1.2041626,6.9777832-1.2349854
		c5.7950439-0.0762939,11.5955811,0.3458862,17.3931885,0.3256226c2.0526733-0.0072021,4.1932983-0.4631348,6.1350708-1.1577759
		c3.7963867-1.3578491,7.2952881-2.1220703,11.505188-0.8110352c2.9055176,0.9046021,6.4602051-0.2971802,9.7270508-0.5250244
		c3.2403564-0.2259521,6.4990234-0.2768555,9.7217407-0.647644c4.2567749-0.4893188,8.5350342-1.9446411,12.7158813-1.6652832
		c5.9926147,0.4005127,11.9741211-2.395813,17.9506226,0.144165c0.8598022,0.3653564,2.1873169-0.5586548,3.2924194-0.539917
		c1.9631348,0.0330811,3.9732056,0.6947632,5.8694458,0.4266968c2.3846436-0.3375244,4.7217407-1.2266235,6.9801025-2.12677
		c0.8024902-0.3198853,1.3139648-1.369812,2.2315674-2.390564c4.0230713,5.2429199,9.3080444,2.2879639,14.0690308,2.7341919
		c5.5869751,0.5238037,11.1496582,1.4226074,16.7454834,1.6940308c3.381958,0.1641235,6.8040771-0.7734985,10.2131348-0.8162231
		c3.62854-0.0452881,7.2606812,0.4468384,10.895752,0.5808716c2.7217407,0.1003418,5.5942993,0.5465088,8.142395-0.1303711
		c3.7377319-0.9927979,8.2813721-0.5757446,9.6212158,1.0568848c4.1672363-0.8064575,7.8012085-2.0229492,11.4487915-2.0650635
		c3.3533325-0.0386963,6.7211914,1.1868896,9.9078369,2.0962524c1.2825317,0.0621948,2.5740356,0.048584,3.8456421,0.2008057
		c3.8955078,0.4666748,7.6677246,2.40625,11.6993408-0.2797241c1.4580688-0.9714355,3.9811401-0.5549316,5.9963379-0.427063
		c2.5228882,0.1600952,5.0229492,0.6776733,7.5343018,1.0301514c0.1323853,0.0186768,0.303833-0.1296997,0.4152222-0.0881348
		c8.2312012,3.0766602,16.7561035-0.4332886,24.7226563,0.7242432c8.6044922,1.2502441,17.8852539-0.8283081,25.9742432,4.0603027
		c1.0556641,0.6381226,3.1360474,0.6528931,4.1959229,0.0289307c4.9759521-2.9290771,9.7592163-0.4369507,14.6225586,0.0648193
		c3.4833984,0.3591309,6.9827881,0.5722656,10.4781494,0.8049316c8.050293,0.5360107,16.098877,1.114502,24.1557007,1.5237427
		c2.6880493,0.1364746,5.4266357-0.4833374,8.0940552-0.2371216c4.5206299,0.4177246,9.0056152,1.2316895,13.5007324,1.9107666
		c5.9584961,0.8999634,11.854126,1.9026489,17.9793701,1.6122437c4.4177246-0.2096558,8.9066162,0.7481079,13.342041,1.3457031
		c3.5124512,0.4730835,7.0177002,1.7910156,10.4794922,1.6428223c4.1361084-0.1768188,7.7873535,0.1801758,11.0454102,2.8713989
		c0.3155518,0.2607422,1.0351563,0.1837158,1.5192871,0.065979c5.7767334-1.4034424,11.4996338-1.7574463,17.1678467,0.5477905
		c0.9179688,0.3735352,2.020752,0.6953125,2.9606934,0.5476074c5.6085205-0.8828125,11.0509033,2.0755615,16.2843018,1.4694824
		c10.762085-1.2463379,20.3763428,5.3709717,31.0551758,3.5592041c1.1835938-0.2006836,2.5570068,1.0220947,3.8990479,1.3572998
		c1.1346436,0.2834473,2.3553467,0.3461914,3.5311279,0.3063965c1.2283936-0.041748,2.8546143-0.9144287,3.6046143-0.4000244
		c4.0548096,2.7801514,8.7393799,2.5375977,13.1663818,3.6185303c4.9169922,1.2005615,9.6043701,0.6094971,14.3779297,0.9912109
		c4.2062988,0.3365479,8.987793-0.0950928,11.1815186,4.3015137c3.9592285,0.284668,7.5628662,0.5878906,11.1724854,0.7855225
		c1.9455566,0.1064453,3.9061279-0.0550537,5.8496094,0.0684814c1.309082,0.083252,2.6203613,0.3774414,3.8912354,0.7225342
		c0.8063965,0.2188721,1.5075684,0.9090576,2.3118896,1.0375977c6.1011963,0.9754639,12.3000488,1.5075684,18.293335,2.9210205
		c3.3126221,0.7813721,6.21521,3.1662598,9.4313965,4.5234375c5.5372314,2.3365479,11.0740967,4.9876709,17.3586426,2.3417969
		c0.9050293-0.3811035,2.2078857-0.1560059,3.2265625,0.1362305c3.081665,0.8843994,6.1166992,1.9327393,9.1651611,2.9313965
		c1.8198242,0.5963135,3.8822021,0.8553467,5.3989258,1.9001465c4.3212891,2.9771729,9.8291016,1.125,14.4332275,4.6837158
		c4.2978516,3.3220215,10.5697021,4.0526123,15.9190674,6.0668945c2.6287842,0.9898682,5.1590576,2.2548828,7.6934814,3.4796143
		c5.8195801,2.8125,11.614624,5.6756592,17.418457,8.5202637c0.8791504,0.4307861,1.7602539,0.8586426,2.628418,1.3106689
		c5.4456787,2.8358154,10.881958,5.6890869,16.335083,8.5102539c1.4581299,0.7546387,2.9595947,1.4268799,4.4503174,2.1169434
		c0.4875488,0.225708,1.3001709,0.2509766,1.4628906,0.6010742c1.9213867,4.1317139,3.8857422,8.2531738,5.5517578,12.4906006
		c1.145874,2.9146729,1.6708984,6.0709229,2.7751465,9.0054932c2.7989502,7.4383545-0.3538818,14.6700439-0.6658936,21.9864502
		c-0.151123,3.5460205-1.1375732,7.131958-2.2403564,10.539917c-1.0211182,3.1555176,0.1789551,4.0404053,2.9908447,4.6938477
		c11.9241943,2.7713623,23.8234863,5.6546631,35.692627,8.6529541c2.8428955,0.7181396,5.4644775,1.7646484,8.0004883,3.7655029
		c2.4056396,1.8978271,6.2888184,1.8774414,9.4798584,2.8406982c2.3299561,0.7034912,4.5913086,1.6342773,7.9104004,2.8356934
		c1.3585205,1.1647949,3.8382568,3.1551514,6.1621094,5.3135986c4.0549316,3.7658691,8.0928955,7.5562744,11.987915,11.4854736
		c3.3221436,3.3511963,6.4912109,6.8605957,9.6080322,10.4057617c1.1947021,1.3585205,2.3344727,2.8959961,3.0113525,4.5515137
		c1.34021,3.2772217,2.0817871,6.8110352,3.5427246,10.0241699c2.1600342,4.7510986,4.0233154,9.3981934,3.5562744,14.8417969
		c-0.1936035,2.2567139,1.2751465,4.6054688,1.506958,6.9595947c0.5490723,5.5754395,0.8344727,11.1776123,1.1668701,16.7727051
		c0.0656738,1.1010742-0.440918,2.2998047-0.1689453,3.3156738c3.6186523,13.5114746-1.6427002,23.1590576-11.6365967,32.3010254
		c-8.3837891,7.6693115-17.9620361,12.6206055-28.0513916,16.5634766
		c-8.8035889,3.4400635-18.2779541,5.965332-27.6546631,6.8999023c-8.5581055,0.8531494-17.2011719,1.0266113-24.8262939,5.0170898
		c-4.4210205,2.3137207-7.8121338,6.6054688-11.635376,10.0419922c-0.6252441,0.5617676-0.9528809,1.5701904-1.6463623,1.9221191
		c-4.8291016,2.4504395-9.5321045,5.3811035-14.6445313,6.9715576c-4.4615479,1.3876953-9.4376221,1.0328369-14.1258545,1.8112793
		c-3.0664063,0.5091553-6.19104,1.3077393-8.9989014,2.6053467c-6.5374756,3.0212402-12.9606934,6.310791-19.2646484,9.791626
		c-0.9329834,0.5151367-1.7403564,3.0289307-1.2836914,3.989624c2.2265625,4.6846924,4.8441162,9.1904297,7.4818115,13.6658936
		c0.3969727,0.6732178,1.6279297,1.1942139,2.480957,1.2058105c7.8236084,0.1072998,15.7976074,1.006958,23.4216309-0.2224121
		c5.0401611-0.8128662,9.4346924-0.5784912,14.0679932,0.7966309c0.5462646,0.1618652,1.137085,0.3093262,1.6953125,0.274292
		c8.1342773-0.5101318,16.2619629-1.3721924,24.4001465-1.4805908c5.9362793-0.0791016,11.8818359,0.8873291,17.8308105,1.2661133
		c3.1928711,0.2034912,6.4481201-0.1629639,9.5910645,0.3000488c3.3371582,0.4915771,7.395874,0.7272949,9.6778564,2.7357178
		c4.2606201,3.7497559,9.8430176,4.3626709,14.3435059,8.0783691c7.3725586,6.0861816,10.2913818,14.4123535,14.8776855,21.8930664
		c2.104126,3.4317627,3.2717285,7.5362549,4.2952881,11.4831543c0.4014893,1.5471191-1.3586426,3.5909424-1.1040039,5.2503662
		c1.7967529,11.7109375-3.7352295,21.2467041-8.9038086,30.8660889c-2.6114502,4.8598633-5.0792236,9.9686279-8.6021729,14.1254883
		c-4.7825928,5.6424561-8.6340332,12.3581543-15.5787354,15.9050293c-0.8374023,0.4276123-2.3432617,0.8967285-2.8052979,0.4974365
		c-3.8924561-3.3634033-7.5880127-0.7132568-10.9458008,0.5944824c-6.3400879,2.4692383-12.2922363,1.8496094-18.7625732,0.4031982
		c-5.1221924-1.1451416-10.725708,0.0787354-16.0615234-0.3786621c-8.387207-0.71875-17.0645752,1.7767334-25.1872559-2.2263184
		c-0.8654785-0.4265137-2.1673584-0.0308838-3.2568359,0.0793457c-0.9697266,0.0982666-2.092041,0.7468262-2.862793,0.4398193
		c-11.6706543-4.6499023-23.9084473-1.9731445-35.8543701-2.9439697c-4.3262939-0.3516846-8.5921631-1.4102783-12.9154053-1.862793
		c-1.3504639-0.1413574-2.7866211,0.90271-4.2027588,0.9649658c-8.4123535,0.3708496-16.8463135,1.0628662-25.2416992,0.7646484
		c-7.5688477-0.269043-15.095459-1.690918-22.6467285-2.5490723c-1.1206055-0.1275635-2.2763672,0.0913086-3.4147949,0.0770264
		c-6.6099854-0.0821533-13.255249,0.2010498-19.8186035-0.4018555c-5.5588379-0.5107422-11.0214844-2.0620117-16.5301514-3.135376
		c-0.8288574-0.161499-1.9049072-0.6173096-2.4790039-0.2791748c-4.8116455,2.8339844-9.291748,1.7814941-14.2503662-0.0162354
		c-2.7550049-0.9985352-6.3005371,0.2702637-9.4945068,0.3815918c-8.8916016,0.3100586-17.7839355,0.69104-26.6787109,0.7695313
		c-6.5916748,0.0581055-13.1862793-0.3433838-19.7810059-0.4857178c-10.8217773-0.2335205-21.645874-0.3756104-32.4644775-0.7052002
		c-1.0720215-0.0325928-2.1126709-1.09729-2.032959-1.0531006c-5.1489258,0.5593262-9.3111572,1.3457031-13.4804688,1.3851318
		c-6.0994873,0.057373-12.2025146-0.5706787-18.3068848-0.6356201c-9.4918213-0.1011963-18.9858398,0.0421143-28.4790039,0.0494385
		c-5.546875,0.0041504-11.0955811-0.1585693-16.6400146-0.0548096c-5.2814331,0.0991211-10.5145874,0.7039795-15.6439209-1.557373
		c-1.3748779-0.6060791-3.5090942,0.5401611-5.3008423,0.8452148c-5.298645,0.9018555-10.5911865,1.8461914-15.9052124,2.6467285
		c-2.2186279,0.3341064-4.4833984,0.4255371-6.730957,0.4870605c-2.7530518,0.0753174-5.59375,0.4327393-8.2498779-0.0847168
		c-8.487915-1.6530762-16.9368896,2.7858887-25.4017334-0.0324707c-1.0013428-0.333252-2.4671631-0.5247803-3.2598877-0.0374756
		c-7.7962646,4.7932129-17.0892944,3.9726563-25.4090576,6.895752c-4.8065796,1.6887207-9.2558594,9.4562988-5.9406738,13.0770264
		c2.8153687,3.0750732,5.7103271,6.8243408,10.9952393,6.4960938c4.3965454-0.2730713,8.6591797-0.0949707,13.0318604,1.9327393
		c3.0914917,1.4337158,7.3009644,0.3138428,10.9812622,0.6561279c4.6402588,0.4318848,9.2355347,1.3962402,13.8789673,1.7226563
		c2.3110352,0.1623535,4.6973267-0.9063721,7.0289917-0.8254395c2.022583,0.0701904,3.9882202,1.1612549,6.0292358,1.4693604
		c3.1863403,0.480835,6.5112915,1.3319092,9.6072388,0.8746338c8.3363037-1.2315674,16.3307495,3.7119141,24.7576294,0.8131104
		c6.0795898-2.0913086,12.1422729,0.4281006,18.1820068,1.1962891c5.0009766,0.6358643,9.9749756,1.489624,14.9536133,2.291626
		c1.4935303,0.2406006,2.9530029,0.8082275,4.4465332,0.8913574c0.9995117,0.0554199,2.0562744-0.7719727,3.0439453-0.6889648
		c1.9593506,0.1646729,3.8887939,0.6854248,6.3803711,1.164917c0.9630127-0.2382813,2.7423096-1.0385742,4.524292-1.0446777
		c3.5957031-0.0125732,7.8917236-0.7159424,10.5927734,0.9647217c2.6862793,1.6717529,5.1392822,2.1669922,7.9510498,2.6036377
		c1.3890381,0.2158203,2.706665,0.8898926,4.8394775,1.6269531c3.2619629-1.5495605,7.0732422-2.7163086,11.9648438-0.0944824
		c2.4312744,1.3031006,6.7879639-0.8481445,10.2280273-1.6361084c1.293335-0.2962646,2.4924316-1.7304688,3.6751709-1.6591797
		c5.0979004,0.3063965,10.1634521,1.1376953,15.2608643,1.46875c4.1864014,0.2714844,8.401123,0.1298828,12.6032715,0.1312256
		c10.6740723,0.00354,21.3483887-0.0229492,32.022583-0.0236816c43.0224609-0.0028076,86.050293,0.4056396,129.0649414-0.1748047
		c20.8933105-0.2819824,42.4414063,13.2966309,47.6085205,37.5522461c1.1525879,5.4122314,0.743042,11.2070313,2.270874,16.472168
		c1.081665,3.7275391,0.5845947,6.6347656-0.1414795,10.2053223c-0.9737549,4.7888184-4.786377,6.5783691-7.649292,9.2165527
		c-2.6470947,2.4394531-6.4532471,3.5657959-9.442627,5.699707c-6.8024902,4.8557129-14.380127,7.4647217-22.6086426,7.7562256
		c-14.5966797,0.517334-29.2075195,0.6347656-43.8106689,0.9812012c-1.560791,0.0371094-3.2246094,0.2077637-4.6494141,0.7868652
		c-10.2139893,4.1517334-20.2648926,2.102417-30.6367188,0.276001c-8.5131836-1.4991455-17.3916016-2.659668-26.0498047,0.8701172
		c-1.8520508,0.7553711-4.5600586-0.7640381-6.8974609-0.9897461c-7.0543213-0.6815186-14.1094971-1.4891357-21.18396-1.7955322
		c-12.6633301-0.5489502-25.34729-0.6304932-38.010376-1.185791c-5.8535156-0.2570801-11.6676025-1.3238525-17.5200195-1.720459
		c-2.9316406-0.1986084-5.9957275-0.1000977-8.8460693,0.5445557c-4.3839111,0.9915771-8.7382813-0.4532471-10.7614746-4.9135742
		c-2.7249756,1.1696777-5.3970947,2.7705078-8.2839355,3.4289551c-2.9133301,0.6646729-6.0654297,0.7067871-9.0667725,0.4609375
		c-4.5419922-0.371582-9.03479-1.6968994-13.5650635-1.788208c-11.4432373-0.2307129-22.9266357-0.4754639-34.3299561,0.2675781
		c-4.9888916,0.3250732-9.7749634,0.1173096-14.6877441-0.2382813c-3.0842896-0.2232666-6.2404785,0.7866211-9.3807373,1.0458984
		c-7.0643311,0.5828857-14.1409302,1.0137939-21.2080688,1.5654297c-3.7805786,0.2950439-7.5457153,0.8968506-11.3288574,1.0195313
		c-3.4570313,0.1119385-6.9304199-0.2089844-10.394165-0.3862305c-4.9429321-0.2526855-9.9703979-1.6994629-14.6422119,1.3295898
		c-0.9370117,0.6074219-2.1282959,1.1906738-3.1920776,1.1729736c-5.8537598-0.0980225-11.7276611-0.8251953-17.5507813-0.5147705
		c-11.1767578,0.5960693-22.3485107,1.5201416-33.4761353,2.7316895c-9.3925171,1.022583-18.7694702,2.3706055-28.0645752,4.0626221
		c-15.5343628,2.8277588-31.1584473,3.9428711-46.9276733,4.5718994c-9.697998,0.3868408-19.2554932,3.5284424-28.9560547,4.8421631
		c-9.5581055,1.2945557-19.2041626,2.0556641-28.8363647,2.647583c-6.7184448,0.413208-13.4869995-0.038208-20.2167358,0.263916
		c-3.2009888,0.1439209-6.3410034,1.4533691-9.5484619,1.6862793c-5.0778809,0.3684082-10.2227173-0.0467529-15.2769775,0.473999
		c-4.6721802,0.4815674-9.262085,1.7596436-13.8898315,2.6791992c-0.4237671,0.0842285-0.9577637,0.3033447-1.2734375,0.1390381
		c-4.682373-2.4384766-7.694458,1.9013672-11.4944458,2.9406738c-1.1525879,0.3154297-2.1931152,2.1030273-2.6315308,3.4320068
		c-0.170166,0.5155029,1.3325195,1.8590088,2.3059692,2.4250488c3.0726318,1.7867432,6.2493896,3.3959961,9.4040527,5.0390625
		c0.3678589,0.1916504,0.937439,0.3602295,1.2636108,0.2113037c3.8015747-1.7362061,5.1330566,1.1912842,7.2000122,3.7419434
		c2.6344604-2.8756104,5.5409546-1.3123779,8.8934937-0.5350342c6.510437,1.5097656,13.2782593,1.8780518,19.9047241,2.9362793
		c2.2236328,0.3549805,4.2980957,1.5872803,6.5181885,2.0360107c4.2943726,0.8675537,8.6417236,1.4753418,12.9733276,2.1518555
		c0.3937988,0.0612793,0.9127808-0.0446777,1.2373047-0.2694092c4.0646362-2.8170166,6.5385742-2.2526855,11.4358521-0.3765869
		c4.307251,1.6503906,9.237915,2.3537598,13.8773193,2.2908936c6.3483887-0.0855713,12.668457-1.5341797,19.0289917-1.8851318
		c2.1879883-0.1207275,4.4561768,1.3151855,6.6977539,2.0074463c0.7852783,0.2421875,1.8132935,0.7978516,2.3693237,0.5108643
		c4.7561646-2.4556885,8.805481-0.1031494,13.2200928,1.2802734c2.802063,0.8778076,6.1286621,0.1467285,9.2160645,0.0313721
		c3.1222534-0.1165771,6.3669434-0.980957,9.3216553-0.37146c2.7086792,0.5585938,5.1020508,2.6456299,7.4953003,3.9818115
		c3.567627-1.088623,7.2639771-3.0251465,11.0098877-3.1265869c3.5673218-0.0963135,7.1520996,1.8935547,10.7976074,2.6253662
		c1.7367554,0.3485107,3.6333618-0.1820068,5.4555664-0.1583252c3.1790161,0.0411377,6.3612061,0.1295166,9.5334473,0.331543
		c4.4239502,0.2816162,8.4117432,3.076416,13.3789673,0.8116455c3.4688721-1.5819092,8.083252-2.3227539,10.6858521,1.3962402
		c5.4019165-0.8071289,9.9046021-3.2196045,15.4706421-0.7879639c2.3849487,1.041748,6.5865479,4.2972412,9.3783569-0.5695801
		c0.1915283-0.3337402,1.0734863-0.4320068,1.6107178-0.3824463c5.3826904,0.4959717,10.7608032,1.0419922,16.1394043,1.5821533
		c2.2486572,0.225708,4.4953003,0.4714355,6.9951782,0.4309082c1.4900513,0.1606445,2.9881592,0.5123291,4.468689,0.4490967
		c6.6636353-0.2838135,13.3277588-1.0214844,19.9804077-0.9111328c3.6485596,0.0603027,7.3309937,2.2971191,10.8945923,2.0507813
		c3.3956299-0.2344971,6.9761963,2.9597168,10.3336182-0.4200439c0.43396-0.4370117,2.4251709,0.6726074,3.9129028,1.1333008
		c0.12146-1.1954346,0.2315063-2.277832,0.3889771-3.8280029c0.8424683,0.3571777,1.6989746,0.9476318,1.9031982,0.7734375
		c4.3673706-3.7253418,8.2965088,0.7823486,12.442627,0.5776367c0.6188965-0.0305176,1.3585205-0.1922607,1.8114624-0.5700684
		c2.1201172-1.7684326,3.8325195-1.8391113,4.8395996,1.2194824c2.7750244-3.0283203,5.5487061-3.2666016,9.0318604-1.7972412
		c1.7819824,0.7514648,4.1367188,0.2406006,6.225708,0.1481934c4.1315918-0.1829834,8.9375-1.8916016,12.2023926-0.3300781
		c3.4813232,1.6652832,6.9348145-2.1437988,9.8609619,1.2514648c0.5969238,0.692749,3.0655518-0.1289063,4.6446533-0.4064941
		c1.8581543-0.3266602,4.1601563-1.7409668,5.4447021-1.0799561c4.9578857,2.5512695,9.9841309,0.0993652,14.9669189,0.802124
		c4.9403076,0.6966553,10.1038818-0.314209,15.1685791-0.2983398c1.4039307,0.0042725,2.77771,1.3679199,4.2111816,1.4716797
		c5.7844238,0.4188232,11.5874023,0.7548828,17.381958,0.7316895c1.4152832-0.0054932,2.7670898-2.0455322,4.2468262-2.1993408
		c7.5473633-0.7836914,15.0938721-2.1379395,22.7150879-0.0992432c1.8394775,0.4918213,4.0164795-0.2906494,6.039917-0.4686279
		c1.2814941-0.1125488,2.5860596-0.3833008,3.8453369-0.2506104c4.1657715,0.4387207,8.3299561,0.9348145,12.4682617,1.5784912
		c10.8267822,1.6843262,21.659668-0.7513428,32.4619141,0.0838623c9.4833984,0.7333984,18.9261475,1.9794922,28.3978271,2.8837891
		c2.8085938,0.2679443,5.7232666-0.2287598,8.4689941,0.277832c5.8538818,1.0794678,11.5998535,2.7363281,17.4460449,3.8675537
		c4.15271,0.8035889,8.4813232,0.7901611,12.571167,1.7943115c2.8356934,0.696167,5.2720947,3.022583,8.1077881,3.7142334
		c7.9597168,1.9407959,14.5264893,6.3394775,21.1455078,10.8193359
		c10.3707275,7.019043,14.6469727,17.4957275,16.6661377,29.1674805c0.7059326,4.0804443,1.2904053,8.4725342,0.5317383,12.4558105
		c-1.6154785,8.4801025-7.1381836,14.1002197-15.4206543,16.5662842c-8.8062744,2.621582-17.6279297,5.3508301-26.6212158,7.1362305
		c-7.2877197,1.4467773-14.8391113,2.1289063-22.2744141,2.1365967
		c-10.6555176,0.0107422-21.3088379-1.0195313-31.9709473-1.3181152c-2.1069336-0.05896-4.2263184,1.6235352-6.3809814,1.7386475
		c-6.0836182,0.3253174-12.1889648,0.2288818-18.2849121,0.3441162c-5.8189697,0.1099854-11.6506348,0.0740967-17.4527588,0.4638672
		c-9.9664307,0.6697998-19.9019775,1.8409424-29.873291,2.3812256c-7.5493164,0.4093018-15.135498,0.0856934-22.7022705,0.2368164
		c-5.177124,0.1035156-10.4008789,1.0400391-15.5124512,0.583374c-9.579834-0.855835-18.7340088,2.3730469-28.12854,2.307251
		c-8.3956299-0.0588379-16.8275146,3.482666-25.2186279-0.126709c-0.6567383-0.2825928-1.6778564,0.1387939-2.4874268,0.3768311
		c-8.522583,2.5050049-17.2010498,3.060791-26.0703125,2.979126c-5.8829346-0.0540771-11.7783203,1.3560791-17.6707764,2.0892334
		c-0.9967651,0.1236572-2.0219116,0.2808838-3.008728,0.178833c-4.0308228-0.4162598-8.0588989-1.3613281-12.0744019-1.2944336
		c-5.2035522,0.0866699-10.3880615,1.0235596-15.5921631,1.4592285c-3.6262817,0.303833-7.2901001,0.6716309-10.9007568,0.4411621
		c-1.9214478-0.1226807-3.765686-1.456543-5.6447144-2.2435303c0.1447144-0.3581543,0.2894287-0.7161865,0.4341431-1.0742188
		c-8.4505615,0.6499023-16.8981323,1.3476563-25.3550415,1.901123c-1.3825684,0.0904541-2.7979736-0.5357666-4.2134399-0.6921387
		c-3.6434326-0.4023438-7.3132935-0.6010742-10.9400635-1.1116943c-5.7779541-0.8137207-11.5731812-1.6065674-17.2780762-2.8035889
		c-4.3547974-0.9139404-8.3140869-3.6313477-13.1835938-1.7177734c-1.4922485,0.5865479-3.6572876-0.2860107-5.4442139-0.7564697
		c-3.4876099-0.9178467-6.8662109-2.5206299-10.3974609-2.9455566c-6.8334961-0.8222656-13.8765869-2.067627-20.5820923-1.199707
		c-7.1471558,0.9250488-13.3609009-1.2982178-20.0246582-2.3200684c-7.8185425-1.1994629-15.7381592-2.1625977-23.8847046-1.0518799
		c-8.1464233,1.1105957-16.5684814,0.0965576-24.7634277,0.9892578c-5.2158203,0.5682373-9.6508179-0.7338867-14.5128784-1.8713379
		c-4.4335938-1.0371094-9.9057007-0.9801025-14.0617676,0.708252
		c-20.1872559,8.1994629-39.9025879,17.5498047-61.7615356,20.9060059
		c-7.581604,1.1641846-14.9108276,4.074585-22.5014038,5.0452881c-6.4050293,0.8195801-13.0234375,0.052002-19.5437012-0.1384277
		c-4.2252197-0.1234131-8.4821777-1.7324219-12.5514526,1.1166992c-0.934021,0.6540527-2.7735596,0.0438232-4.1939697-0.03125
		c-4.9165039-0.2602539-9.8960571-0.1418457-14.7316895-0.9162598c-5.9058228-0.9455566-12.1292725,0.1990967-17.7520752-2.9846191
		c-2.1635132-1.2250977-4.9138794-1.5722656-7.4518433-1.9483643c-8.3869629-1.2421875-15.5081177-4.5993652-20.7955322-11.4730225
		c-1.1625366-1.5117188-3.8497314-2.5020752-4.039978-3.9658203c-0.3304443-2.5404053-0.1331177-6.0631104,1.4054565-7.7408447
		c3.1151733-3.3967285,6.8962402-7.2900391,11.0799561-8.380249c10.2727051-2.6772461,20.8666992-4.6320801,31.4451294-5.5130615
		c18.72229-1.5593262,37.1540527,0.9158936,55.3477173,5.7838135c9.4545288,2.5297852,19.1689453,4.8612061,28.8739624,5.4257813
		c7.1132813,0.4136963,14.5130615-1.7668457,21.5759277-3.5982666c5.1193848-1.3275146,9.9115601-3.9404297,14.819397-6.050415
		c2.9685059-1.2763672,5.0740356-2.9733887,5.2329102-6.8040771c0.1763916-4.2501221-2.4649048-8.1141357-6.883667-8.416748
		c-2.7859497-0.1906738-5.6226807,0.140625-8.3798218-0.2094727c-8.2473755-1.0472412-16.4569702-2.3883057-24.699646-3.4771729
		c-9.9780273-1.317749-20.0026245-2.3111572-29.9508057-3.8164063c-4.4736938-0.6768799-8.7861938-2.3637695-13.2205811-3.3798828
		c-2.3389893-0.5360107-4.776001-0.7076416-7.180542-0.8828125c-6.0064087-0.4373779-12.1609497-0.1062012-17.9967651-1.3251953
		c-8.5829468-1.7929688-16.8847046-4.8894043-25.4107056-7.0107422c-7.2815552-1.8112793-14.6991577-3.0914307-22.0843506-4.4564209
		c-1.31073-0.2423096-2.7575073,0.2521973-4.4641113,0.4422607c-0.0717163-1.4101563-0.1317139-2.5875244-0.2111206-4.1478271
		c-4.9990234,2.5400391-9.5895386,0.9614258-14.2747192-0.5742188c-2.5797119-0.8455811-5.3817139-0.9852295-8.0407104-1.6219482
		c-8.329895-1.9946289-16.6973877-3.8713379-24.9284058-6.2207031c-3.3035889-0.9428711-6.269043-3.0411377-9.4254761-4.5351563
		c-6.6409912-3.1433105-13.3572998-6.1313477-19.946167-9.3787842c-5.3746338-2.649292-10.9753113-5.0743408-15.7956848-8.5435791
		c-4.2635498-3.0686035-7.7626648-7.2894287-11.2599792-11.2974854c-1.9279785-2.2094727-3.146759-5.0351563-4.7043152-7.5712891
		c-2.8494263-4.6396484-3.7232056-9.6616211-2.0284729-14.7977295c0.660614-2.0023193,3.099884-3.4191895,3.7567444-5.4215088
		c1.119812-3.4143066,3.6128845-1.8664551,5.6455078-2.3337402c5.9914246-1.3774414,11.9386597-2.9508057,17.8895264-4.4995117
		c18.4568176-4.8034668,37.3239441-5.4849854,56.250885-5.8040771c18.2107544-0.3070068,36.4187622-0.8109131,54.6248779-1.3320313
		c23.0770264-0.6602783,46.1529541-1.3718262,69.2247314-2.1912842c4.5958862-0.1633301,9.1696777-0.9251709,13.7559204-1.3890381
		c4.006958-0.4053955,8.0092773-0.9283447,12.0272827-1.1402588c12.2489624-0.6461182,24.5103149-1.0668945,36.7550659-1.7794189
		c6.0358276-0.3513184,12.0692139-1.8321533,18.0628052-1.6241455c19.4552612,0.6749268,38.5039673-1.6610107,57.5698242-5.37146
		c8.1142578-1.5791016,16.7236938-0.77771,25.1079102-0.7713623c16.9486084,0.0126953,33.0359497-5.1478271,49.4569702-8.2296143
		c2.0330811-0.3813477,3.5159302-3.6938477,5.2538452-5.6481934c-2.5727539-1.3127441-1.8861694-5.5869141-7.1508789-5.2449951
		c-6.651062,0.432251-13.5256958-2.1455078-20.2646484-3.6057129c-8.8002319-1.9068604-17.5234375-4.19104-26.3598022-5.899292
		c-3.4418945-0.6655273-7.5131836,0.7988281-10.579895-0.4584961c-7.6126709-3.1206055-15.5910645-0.4893799-23.281189-2.5582275
		c-5.5593262-1.4959717-11.6343384-1.0012207-17.4504395-1.6519775c-2.5279541-0.2827148-4.9842529-1.2088623-7.4711304-1.8508301
		c-0.6870117-0.1774902-1.3555298-0.4840088-2.0514526-0.5617676c-10.3307495-1.152832-20.6583862-2.3397217-31.0012207-3.373291
		c-3.4313965-0.3427734-6.9143066-0.1506348-10.3533325-0.4423828c-1.9127197-0.1623535-3.7853394-0.8096924-5.6720581-1.2556152
		c-0.5369873-0.1269531-1.1117554-0.545166-1.5811768-0.4393311c-8.7658691,1.9760742-16.9718018-1.4249268-25.4393921-2.2833252
		c-8.5483398-0.8666992-16.9475098-4.9484863-25.8043823-2.1149902c-0.3955688,0.1265869-1.0110474,0.2244873-1.2714844,0.0175781
		c-6.3059082-5.0068359-14.2671509-0.8172607-21.0026245-3.7855225c-1.8148804-0.7998047-4.2364502-0.1075439-6.3440552-0.3778076
		c-11.8200073-1.5147705-23.6253052-3.1444092-35.4435425-4.6738281c-6.3580933-0.8227539-12.734375-1.5042725-19.0969849-2.2928467
		c-1.7041626-0.2111816-3.4300537-0.4359131-5.0742798-0.9051514c-4.6503906-1.3273926-9.2020874-1.9962158-14.1687622-1.3278809
		c-3.6777954,0.4949951-7.5820923-0.9151611-11.4058228-1.2283936c-5.1121826-0.4188232-10.2449951-0.836792-15.3675537-0.8201904
		c-6.7814331,0.0219727-13.1564941-1.0666504-18.8861084-4.9274902c-0.8202515-0.5527344-1.8111572-1.0537109-2.7715454-1.1665039
		c-12.1676025-1.4320068-18.5704956-10.8684082-26.1589966-18.6859131
		C510.7067261,1496.8181152,508.0101318,1494.3510742,505.6271362,1492.0494385z"/>
	<path fill="#EBDDAB" d="M847.5491943,727.1723022c0.5715332,0.0548706,1.2128906,0.3071289,1.7035522,0.1333618
		c3.8545532-1.3651733,6.8987427,0.3619995,10.0026855,2.3131104c1.2797852,0.8044434,2.8947144,1.0733643,4.3536377,1.5958862
		c1.5927734,0.5704956,3.1814575,1.1524048,4.6103516,2.3666382c3.5587769-1.2147827,6.5355225-0.6707764,9.887207,2.1589966
		c2.272583,1.9186401,5.9530029,2.1463013,8.9771118,3.2061157c2.2084351,0.7738647,4.4699097,1.4855347,6.5345459,2.5584717
		c2.9164429,1.515625,5.586853,3.3793945,9.2207031,2.5661011c1.0582275-0.2367554,2.4675903,0.4740601,3.5464478,1.0617676
		c4.2290649,2.3039551,8.3468018,4.8156738,12.6152954,7.0402832c0.8022461,0.4180908,2.1060791-0.1260986,3.6080322-0.2663574
		c-1.1967773,5.4807129,1.8911133,4.7874146,5.1564941,3.9949341c1.5483398-0.3757324,10.7664795,6.1309204,11.5927124,7.4146118
		c0.6304932,0.9795532,2.3882446,2.1311646,3.2772217,1.8842163c3.0776367-0.8551636,4.906189-0.2800293,7.4899292,2.0482178
		c4.3708496,3.9385376,9.8226929,6.6675415,14.7635498,9.9891357c1.6544189,1.1121216,3.1328735,2.4854126,4.697998,3.7314453
		c1.9643555,1.5638428,5.2001953,1.5826416,5.7771606,4.8557129c0.1443481,0.8189087,0.4850464,1.6937256,0.9946899,2.3380127
		c0.9295654,1.175293,2.1784668,3.2244263,3.0749512,3.1149292c5.4365234-0.6639404,7.4042969,3.4223022,9.8666992,6.7304688
		c1.7876587,2.4016724,3.2443237,5.0618286,4.7043457,7.6868286c0.3700562,0.6652222,0.5309448,1.8182373,0.2025146,2.4355469
		c-1.3479614,2.5333252-0.1246338,3.8262939,1.8278809,5.2780762c5.0247192,3.736145,6.1027832,10.861084,3.654541,16.9136963
		c-1.052063,2.6011353,0.0332642,5.9901123-0.597229,8.8572998c-0.852478,3.8772583-2.2527466,7.6677246-3.7907715,11.3391724
		c-0.4389038,1.0479126-2.1694336,1.5547485-3.291748,2.2991943c1.1420898,7.0045166-3.8347168,11.4927979-6.8366699,16.7964478
		c-0.607666,1.0736694-1.0460205,2.2584839-1.44104,3.4329834c-0.4498901,1.3377686-0.4327393,3.659668-1.1920776,3.9274902
		c-3.9038086,1.37677-3.4343262,4.864502-4.4794312,7.7242432c-1.2840576,3.5140991-3.0062866,6.513916-7.211731,7.8869019
		c-1.9341431,0.6314087-3.0465698,3.779541-3.4813843,5.9968262c-0.1859131,2.3511963-0.1168213,4.7583618-0.6167603,7.0409546
		c-0.7714844,3.522644-1.9365845,6.9589233-2.9276123,10.4338989c-4.15271,14.5638428-15.5608521,23.0866699-26.9724121,31.1989746
		c-6.3918457,4.5437012-13.7550049,8.0527344-21.1400146,10.7866821
		c-9.9476318,3.6826782-15.8577881-1.7328491-14.3753052-12.2808228
		c1.0856934-7.7244263,6.3084106-12.6433105,12.3098755-16.5654297c7.7272949-5.0499878,16.2060547-8.9987793,23.6813354-14.3682861
		c5.1500244-3.6993408,9.0332642-9.1246948,13.7102051-13.5374146c2.1070557-1.9880981,4.5924683-3.8021851,7.2331543-4.9292603
		c2.2969971-0.9804688,3.9898071-1.6004639,4.3483887-4.5249634c0.1935425-1.5786133,2.3274536-2.8390503,2.8287354-4.4750366
		c1.6555176-5.4040527,2.973877-10.9118042,4.4001465-16.3853149c0.2051392-0.7872314,0.2241821-1.6245728,0.446167-2.4054565
		c1.0042725-3.53302,2.2676392-6.6741943-0.2193604-10.5778809c-1.6486816-2.5878906-0.4335938-6.8527222-1.6846924-9.8770142
		c-1.8046265-4.3623657-4.5334473-8.3783569-7.1380005-12.3657227c-4.3025513-6.5866699-11.3120117-9.9419556-17.5317383-14.2365723
		c-3.0910034-2.1342773-5.9865112-4.5557251-9.1141968-6.6304321c-1.1334229-0.7519531-2.7286377-0.7667236-4.0379028-1.3019409
		c-3.5314941-1.4430542-7.0635376-2.5411377-9.7224121-5.9024048c-1.4853516-1.8778687-4.8770752-2.3226929-7.4755249-3.2236328
		c-2.5078125-0.8695679-5.2191162-0.1829224-7.0819092-3.6800537c-0.980835-1.8414917-5.9519653-1.2559204-8.828186-2.4641724
		c-3.8058472-1.598877-7.3273315-3.8762207-10.9620972-5.8780518c-0.3598633-0.1982422-0.6409912-0.7089844-0.9868774-0.737854
		c-6.7746582-0.5671387-11.5700073-6.4486084-19.1494141-6.1273804c-4.4721069,0.1894531-9.0314331-4.3254395-13.7398682-6.2680664
		c-4.1539307-1.7139282-8.5877686-2.739563-12.8613892-4.1774902c-2.2650146-0.7620239-4.4922485-1.6679688-6.6639404-2.666748
		c-2.3631592-1.086731-4.2033691-3.8009033-7.3880615-2.1655884c-0.2973022,0.15271-0.8686523-0.0474243-1.234375-0.236084
		c-4.4749146-2.3063965-8.901001-4.7106323-13.413147-6.94104c-2.4369507-1.2047119-5.0160522-2.1210327-7.5282593-3.1741333
		c-4.4718018-1.8742065-8.8516235-4.0203857-13.4353027-5.5610962c-5.3525391-1.7991943-10.9552612-2.8522949-16.3129272-4.6385498
		c-4.7310791-1.5772095-9.2810059-3.7019653-13.8990479-5.6135254c-3.9470215-1.6339111-7.9271851-3.2004395-11.8010254-4.9945068
		c-3.9646606-1.8363037-7.7722778-4.0110474-11.7341309-5.8538818c-3.2912598-1.5309448-6.7597046-2.6801758-10.0557251-4.2020874
		c-6.3449707-2.9296265-12.8665771-5.5957642-18.8432007-9.1617432c-3.9256592-2.3424683-8.2700195-4.460144-10.8818359-8.7783203
		c-1.085022-1.7938843-3.15448-3.2416382-5.0914307-4.2277222c-8.3405762-4.2460938-14.9320679-10.7970581-19.7637939-18.2932739
		c-3.2087402-4.9782715-7.7791748-10.4130859-6.0649414-17.8144531c0.5975952-2.5802002-1.5410767-5.6858521-1.7451782-8.5995483
		c-0.1275635-1.822876,0.8326416-3.8224487,1.6401367-5.5893555c1.7025146-3.7255859,4.6268921-6.7723999,3.6075439-11.6888428
		c-0.4368896-2.1079712,1.6206055-5.2298584,3.3375244-7.2001343c6.8118896-7.8167725,12.4960938-16.7263184,21.3990479-22.5922241
		c0.9815063-0.6466675,1.4317017-2.0761719,2.1807861-3.1043701c1.2907104-1.7713623,2.2371826-3.0822754,5.1550903-3.5276489
		c3.6220093-0.5527954,6.8219604-3.7921143,10.2371826-5.8153687c1.4228516-0.8427734,2.9748535-1.4689331,4.3887939-2.3245239
		c1.9130859-1.1574707,3.772583-2.4082031,5.6097412-3.6842041c0.9239502-0.6417236,1.6473999-1.6306152,2.6322021-2.1169434
		c10.2573242-5.0664673,20.5198364-10.1243896,30.8425903-15.055481c6.4685059-3.0899658,13.4916382-5.2677002,19.4384155-9.1290894
		c5.5997314-3.6362305,11.6013794-5.6513672,17.6709595-7.9302368c4.1725464-1.5667114,7.9749756-4.0922852,12.0704346-5.9003906
		c2.8737183-1.2687988,5.9954224-1.9633179,8.9459229-3.0747681c3.0571289-1.1514282,6.0359497-2.5094604,9.0585938-3.7537231
		c6.7876587-2.7941895,13.5807495-5.5753784,20.3747559-8.3543091c0.2647095-0.1083374,0.7030029-0.0441895,0.8222656-0.2210083
		c5.2637329-7.8006592,15.9580688-3.2577515,21.949585-9.6098633c0.7263794-0.7700806,2.9047241,0.0436401,4.2034302-0.4362183
		c7.7041626-2.8468018,15.3665771-5.8101807,23.0053711-8.8296509c6.6000977-2.6088867,13.1165771-5.430603,19.7319946-7.9987793
		c6.0895386-2.3640442,12.2681885-4.4978027,18.3907471-6.7784424c1.0455322-0.3895569,2.0559082-0.9298401,2.9967041-1.5341492
		c3.5827026-2.3010559,4.9123535-2.3877563,7.668396-0.9751892c4.4584961-1.9607239,8.1867065-3.6329041,11.9414063-5.2432251
		c4.6218872-1.9822693,9.2390747-3.9809265,13.9152832-5.8282776c1.5773315-0.6231384,3.310791-0.9912109,5.0037231-1.1533508
		c4.121582-0.3946228,7.8200684-1.4074097,10.3526001-5.0880737c0.4672241-0.6790466,1.8168945-1.346344,2.5357056-1.1593933
		c4.3581543,1.1336365,7.4255371-1.848053,10.696106-3.5108032c3.9216309-1.9935913,7.2298584-4.5333252,12.0897217-4.9423218
		c3.2723389-0.2753906,6.241333-3.6228943,9.4380493-5.4333801c8.8411255-5.006958,17.8942261-9.6648865,26.5148315-15.0219727
		c3.1716309-1.9709473,5.3773193-5.5036011,8.0013428-8.3445129c1.0749512-1.1639099,2.2503662-2.2801514,3.0965576-3.5998535
		c1.2305908-1.9197693,2.7265625-3.8934631,3.1815186-6.0407715c0.9981689-4.7107239,3.4692383-8.5257874,6.2655029-12.2210388
		c1.1607666-1.5339966,2.5754395-2.3327942,1.2099609-5.0427246c-1.3062744-2.5922241-0.4560547-6.1883545-1.0239258-9.2561951
		c-0.708374-3.828064-2.5032959-7.5274963-2.7537842-11.3529358c-0.5183105-7.9104919-6.8874512-11.9197693-10.7902832-17.552124
		c-1.0948486-1.5800476-2.8881836-2.6678467-4.322876-4.0220337c-7.0480957-6.6530457-13.1169434-14.3473511-22.3850098-18.4996948
		c-5.208252-2.3333435-9.8866577-5.8988953-14.6700439-9.1086426c-2.3191528-1.5562134-4.0892944-4.0510559-6.5314331-5.2785645
		c-5.0963745-2.5617676-10.4013672-4.759552-15.753418-6.7495728c-7.8510742-2.9190063-14.4067383-7.5323181-20.5129395-13.2515259
		c-3.1905518-2.9882813-7.7609863-4.5040588-11.7106934-6.680603c-4.3076172-2.3738403-8.7075195-4.5957642-12.902832-7.1533813
		c-4.5518188-2.7749329-8.8300171-5.9997864-13.3905029-8.7590637c-2.8261108-1.7099609-5.987915-2.8553467-8.9429932-4.3640747
		c-8.9849854-4.587616-17.9241333-9.2653198-26.916626-13.8379822c-8.2319336-4.1858215-16.8399658-7.7456055-24.6702881-12.5739136
		c-7.0929565-4.3736877-13.4390259-9.9888611-19.9589844-15.2493591c-3.482605-2.8098602-6.4520264-6.2643738-9.9801636-9.0070648
		c-5.9476318-4.6234131-9.911499-10.7232513-13.7836914-16.9832458c-1.1105957-1.7955017-2.9646606-3.1356659-4.0484009-4.942215
		c-1.855896-3.0940094-3.6256714-6.2884827-4.9815674-9.623703c-3.019043-7.4260864-5.9790649-14.8905029-8.5641479-22.4752502
		c-4.1234131-12.0980682-6.8716431-24.4829712-6.1262817-37.3985596c0.2495728-4.3245697,0.5627441-8.6495972,1.0060425-12.9580231
		c1.2558594-12.2054138,20.1132813-27.980011,33.6442871-22.7200241c4.9078369,1.9078751,9.8001099,5.180603,13.3223267,9.0758896
		c9.9542847,11.008728,11.2911987,24.5509186,7.5328369,38.1564026c-2.7449951,9.9377136-6.989502,19.5927582-11.6429443,28.8312073
		c-3.8814087,7.7057953-4.9235229,15.2174377-3.0150146,23.4049072c0.588562,2.5247498,0.6677856,5.2365265,1.6463013,7.5850983
		c1.2839966,3.0814362,2.5970459,6.6352081,5.0081177,8.6697693c6.6746826,5.6323547,11.6593628,13.5357666,20.4400024,16.4097443
		c7.1864014,2.3522339,13.7026367,6.8667603,21.9338379,6.0519714c3.2719116-0.3238831,6.7027588,1.5328369,10.1135864,1.8728027
		c3.2404175,0.322998,6.5634155-0.2500916,9.8231812-0.0307312c2.5596924,0.1722717,5.0785522,0.9521179,7.5009155,1.4390564
		c2.7588501,0,5.5883789-0.4234314,8.2393799,0.0847473c6.2611084,1.2001648,12.5737305,2.4339294,18.6026611,4.4429321
		c4.4786377,1.4924011,9.470459,2.6016541,12.4518433,7.0124207c0.555542,0.8218994,1.2244263,2.0198669,2.0050659,2.1655579
		c6.4665527,1.2069092,9.4871216,7.4350281,14.9523315,10.1312561c1.4750977,0.7277527,2.012085,3.1510925,3.3369141,4.424469
		c5.8745728,5.6463013,12.5142822,10.6313477,17.6687622,16.8562317c5.8829346,7.1046143,14.00354,10.7724609,21.1574097,15.831665
		c6.8233643,4.8256531,14.883667,7.865448,21.9705811,12.3667603c6.0220947,3.8251038,12.8695068,5.5810242,19.0264893,8.9084167
		c1.8000488,0.9727783,3.0015869,3.0299683,4.7822266,4.066864c2.8034668,1.6326599,6.0385742,2.54599,8.7758789,4.2652588
		c3.9477539,2.4793701,7.9324951,5.0646362,11.3270264,8.22229c5.5266113,5.1409302,10.9859619,10.457428,15.7431641,16.2950745
		c5.5687256,6.8334351,12.3790283,12.9837341,14.1583252,22.3640442c0.4567871,2.4086304,2.125,4.6019287,3.3114014,6.8547058
		c2.1508789,4.084198,3.7097168,8.2253723,3.2357178,13.0409851c-0.1220703,1.2420044,1.6625977,2.5722656,2.220459,3.9992065
		c1.6901855,4.324646,4.1397705,8.6282349,4.5638428,13.1039429c0.5635986,5.9469299-0.5047607,12.0484314-0.9144287,18.7806702
		c0.4219971,0.2432861,1.5767822,0.9095154,3.3370361,1.9248657c-4.6558838,4.0078735-5.0090332,9.4527588-6.6011963,14.6613159
		c-1.5842285,5.1822815-6.4787598,9.6341858-10.6176758,13.6976929
		c-9.8531494,9.6736755-19.9768066,19.0873108-30.3026123,28.255127c-3.0294189,2.6896362-7.1104736,4.19104-10.6949463,6.2622681
		c-0.84021,0.4854736-1.6022949,1.1046753-2.4324951,1.6089478c-3.482666,2.1154785-6.9726563,4.2191162-10.4698486,6.3104858
		c-2.7572021,1.6488037-5.456543,3.4144897-8.3087158,4.8806763c-6.8763428,3.534729-13.8132324,6.9533081-20.753418,10.3621826
		c-4.4354858,2.1787109-8.8238525,4.5023193-13.4109497,6.3102417c-4.4775391,1.7647095-9.2365112,2.8029785-13.767334,4.4483643
		c-3.6850586,1.3383179-7.2224731,3.086731-10.8075562,4.6931152c-0.631958,0.2831421-1.1838379,1.1105957-1.7595825,1.0977173
		c-6.5292969-0.145874-11.1870117,4.2631226-16.7340698,6.4811401c-6.0506592,2.4193115-12.8413696,2.96698-19.2790527,4.4619141
		c-0.9602661,0.2229004-1.6987915,1.2711182-2.6346436,1.7537231c-3.022522,1.5587158-6.0966187,4.3134766-9.1375122,4.2960205
		c-8.9203491-0.0514526-15.5395508,4.692688-22.5045776,8.9848633c-0.368042,0.2268066-0.68573,0.7294312-1.045166,0.7478638
		c-11.2657471,0.5791626-18.1762085,11.1776123-29.2042847,12.6122437c-3.369751,0.4383545-6.5654907,2.8143311-9.6645508,4.6077881
		c-6.5056152,3.7647095-12.8812866,7.75354-19.3452759,11.5914917c-0.9553223,0.5671997-2.1034546,0.8075562-3.1585693,1.2092285
		c-1.0696411,0.4071045-2.5983276,0.5112915-3.1288452,1.2907715c-4.5099487,6.6258545-11.7659912,9.1445313-18.3065186,12.8139038
		c-1.6519165,0.9268188-2.3824463,3.3657227-3.8100586,4.8458252c-5.140564,5.3296509-11.0932617,10.0428467-15.3855591,15.9692383
		c-3.288208,4.5401611-4.1379395,10.7663574-6.8023682,15.8608398c-2.6638184,5.0933228-1.5880737,10.4197998-2.3991699,15.6014404
		c-0.9595947,6.1303711,2.4361572,9.8163452,6.1377563,13.2835693c5.217041,4.8865967,10.6705322,9.5817261,16.4202271,13.8197632
		c4.7171021,3.4771729,10.0946045,6.0446777,15.0127563,9.2697144c1.8713989,1.2272339,3.2774658,3.1640625,4.8956299,4.7774048
		C847.881958,726.4064941,847.7156372,726.7894897,847.5491943,727.1723022z"/>
	<path fill="#EBDDAB" d="M1425.6791992,1630.1612549c-0.564209-2.324707-2.3040771-6.4379883-2.4470215-10.6063232
		c-0.6501465-18.960083,6.9384766-35.1470947,17.8233643-50.0848389c3.4053955-4.6732178,6.6761475-9.4589844,10.3225098-13.9373779
		c3.0838623-3.7878418,6.4133301-7.4318848,10.0024414-10.7397461c6.8846436-6.3450928,13.31604-13.6082764,21.2298584-18.3139648
		c12.9998779-7.7302246,24.5689697-18.7685547,40.5187988-20.6169434
		c8.8892822-1.0303955,17.8492432-1.7276611,26.6021729,1.4648438c4.6009521,1.6778564,10.503418-0.5050049,13.3918457-4.3685303
		c0.9251709-1.2374268,2.4416504-2.0876465,3.1776123-3.4008789c2.2045898-3.934082,4.3155518-7.9389648,6.1429443-12.0583496
		c0.9522705-2.1474609,1.1265869-4.6264648,1.8354492-6.8986816c1.3850098-4.4393311,3.6768799-8.748291,4.2019043-13.2727051
		c1.2058105-10.3891602,7.2609863-17.0750732,15.0922852-23.0004883
		c11.1940918-8.4702148,22.5252686-16.8250732,33.0788574-26.0518799
		c6.7579346-5.9083252,12.2501221-13.2728271,18.215332-20.0671387c0.578125-0.657959,0.4382324-1.9157715,0.7219238-2.8682861
		c1.1599121-3.8953857,2.1262207-7.5015869,5.0941162-10.9853516c4.3459473-5.1011963,6.9205322-11.7148438,10.2185059-17.7012939
		c0.4703369-0.8538818,0.6025391-1.9223633,1.1630859-2.6940918c6.520752-8.9761963,9.7489014-19.208252,12.1325684-29.9101563
		c1.286499-5.7763672,3.916748-11.2418213,5.6339111-16.9399414c0.630127-2.0906982,0.3598633-4.4488525,0.5297852-6.6827393
		c0.3150635-4.1455078,0.4923096-8.3101807,1.0285645-12.4273682c0.4460449-3.4239502,1.350708-6.786377,1.996582-10.1866455
		c0.2142334-1.126709,0.4121094-2.2946777,0.3520508-3.4296875c-0.53479-10.1105957-0.7191162-20.2659912-1.8913574-30.3046875
		c-0.5308838-4.543457-2.4581299-9.211792-4.8251953-13.18396c-3.385498-5.6810303-7.6311035-10.8759766-11.7924805-16.0505371
		c-1.0487061-1.3041992-3.1293945-1.8465576-4.8115234-2.560791c-5.9051514-2.5075684-11.1070557-6.0882568-17.529541-8.0750732
		c-11.1536865-3.4506836-22.0863037-3.918457-33.0809326-1.9592285
		c-13.4626465,2.3989258-24.7580566,8.7851563-34.4946289,19.1049805
		c-7.2806396,7.7167969-11.6088867,17.0788574-18.0013428,25.1741943
		c-5.2159424,6.6049805-9.8671875,13.6536865-14.8450928,20.4498291c-2.0400391,2.7849121-6.8671875,3.7276611-10.2054443,2.2924805
		c-8.1812744-3.5170898-10.8834229-11.1711426-14.5482178-18.3729248
		c-7.4266357-14.5942383-7.8955078-30.1732178-8.4619141-46.0263672c-0.4057617-11.3560791,1.881958-21.642334,6.3988037-31.8723145
		c3.78125-8.5632324,10.7446289-13.3924561,18.3520508-17.7088623c14.467041-8.208374,30.4464111-12.3830566,46.2434082-16.9836426
		c2.730957-0.7952881,5.7357178-0.8952637,8.6142578-0.8979492c19.987915-0.0197754,39.989624-0.368042,59.9604492,0.2479248
		c20.6894531,0.6381836,37.9997559,9.4185791,53.105957,23.4782715c9.5809326,8.9173584,17.456543,18.8192139,22.907959,30.6687012
		c0.8321533,1.8084717,1.4239502,3.7293701,2.0974121,5.6088867c4.6801758,13.0563965,9.5317383,26.0673828,11.2966309,39.9459229
		c1.6912842,13.3018799,3.5933838,26.5830078,4.9608154,39.9187012
		c1.9868164,19.3806152-4.1693115,37.2011719-11.5599365,54.6175537
		c-10.5377197,24.8321533-27.2353516,44.8126221-48.6842041,61.045166
		c-4.6938477,3.5524902-8.6430664,8.081665-12.987915,12.1040039c-7.5157471,6.9577637-14.9678955,13.9887695-22.6368408,20.7740479
		c-11.4959717,10.1708984-22.8885498,20.4060059-30.838501,33.791626
		c-4.7668457,8.026001-8.9351807,16.4710693-14.3291016,24.0469971
		c-8.953125,12.5750732-18.5720215,24.6580811-30.9569092,34.2561035c-2.6131592,2.0253906-4.2249756,5.3969727-6.1491699,8.2487793
		c-7.7164307,11.4350586-15.0245361,23.1672363-23.1987305,34.2626953
		c-4.1955566,5.6950684-9.9980469,10.1867676-14.8695068,15.4135742c-1.8256836,1.9588623-2.6730957,4.9178467-4.6506348,6.6317139
		c-7.7276611,6.6967773-13,15.2874756-19.1875,23.2269287c-10.4226074,13.3730469-24.8839111,21.0985107-41.2901611,24.6102295
		c-6.7775879,1.4505615-13.9572754,1.1594238-20.9614258,1.2999268c-1.4204102,0.0286865-2.9881592-1.4160156-4.2884521-2.4359131
		C1433.3747559,1636.6407471,1430.2653809,1633.9645996,1425.6791992,1630.1612549z"/>
	<path fill="#EBDDAB" d="M1079.2993164,924.6709595c-3.0512695-2.0264893-3.2752686-3.6213379-0.4033203-5.375
		c2.661377-1.6248779,5.2011719-3.4627075,7.6987305-5.3346558c0.8756104-0.6560669,1.8253174-1.5864258,2.1168213-2.5755005
		c0.7495117-2.5436401,1.2570801-5.0689087,4.4754639-5.6548462c0.394043-0.0716553,0.7476807-0.8696899,0.9520264-1.3962402
		c1.3098145-3.3792725,2.1120605-7.0560913,3.9593506-10.102478c2.7459717-4.5283203,4.0819092-9.392334,5.3118896-14.4102783
		c0.2441406-0.9954834,1.7608643-1.6790771,2.1390381-2.0155029c0.3948975-3.6852417,0.9161377-6.8027344,1.0240479-9.9343872
		c0.2020264-5.8551636,0.164917-11.71875,0.225708-17.5787354c0.0435791-4.1941528,0.1416016-8.3891602,0.0789795-12.581665
		c-0.0124512-0.8375854-0.517334-1.750061-1.0112305-2.4821167c-1.2510986-1.8544922-3.1503906-3.4483032-3.8343506-5.4698486
		c-1.2122803-3.5844727-0.9284668-7.8405151-2.6833496-11.0411377c-3.5247803-6.4289551-7.6135254-12.6468506-12.1999512-18.366333
		c-4.0310059-5.0269165-8.862915-9.473877-13.6942139-13.781189c-6.3132324-5.628418-13.0428467-10.7877808-19.4370117-16.3291016
		c-1.6101074-1.3952026-2.2602539-4.0888062-3.987793-5.1184692c-3.894165-2.3214111-8.3148193-3.7469482-12.274292-5.9760132
		c-2.9609375-1.6671143-5.3366699-4.3953857-8.3280029-5.9815674c-4.699707-2.4920044-9.6845703-4.3636475-11.3358154-10.2576904
		c-0.1801147-0.6431274-2.0726318-0.8549194-3.1973877-1.1734619c-1.5747681-0.4459839-4.1641235-0.3478394-4.5932617-1.2785034
		c-1.9318848-4.1893921-6.0113525-5.0643921-9.401123-7.052002c-4.5980225-2.696106-8.9190063-5.9902344-13.7613525-8.1065063
		c-4.2807617-1.8707886-6.9588013-4.9721069-9.7293701-8.3461304c-0.781311-0.9514771-2.4434204-1.2518921-3.7571411-1.6804199
		c-4.0714111-1.328125-8.3187866-2.2370605-12.2103882-3.9584351c-3.1340332-1.3862305-5.8435669-3.7269287-8.7548828-5.6234131
		c-1.9852905-1.293396-3.9957275-2.5480347-5.9915161-3.8253784c-4.6554565-2.9797974-9.6907349-5.5147095-13.8599854-9.065918
		c-4.5158081-3.8463745-9.4624634-7.0845337-13.9471436-10.8564453c-3.5100098-2.9519653-5.8568726-7.333313-8.4935913-11.2329102
		c-0.4597168-0.6797485,0.1876221-2.1234131,0.3551636-3.2092896c0.7741089-5.0164795,0.4648438-10.447876,5.2974854-13.9204712
		c-0.0755005-7.1489258,4.5563354-11.4376831,9.7304688-15.0518188c1.791626-1.2515259,4.6123657-1.0300903,6.9629517-1.4814453
		c0.2192383,0.4383545,0.4384766,0.8768311,0.6577759,1.3152466c0.6080322-1.234314,1.1844482-2.4854126,1.8299561-3.6998291
		c2.3615112-4.4429932,5.6795044-7.6610107,10.1705322-10.2677612c2.4597168-1.4277344,4.3632202-3.24646,7.425354-3.0442505
		c0.5567017,0.0367432,1.6029663-0.7059937,1.6894531-1.2138672c0.8344727-4.8970947,5.401001-3.6963501,8.2868042-5.2017212
		c1.9353027-1.0094604,3.8137817-2.2033081,5.8588867-2.9006348c1.4393311-0.4907227,3.1158447-0.2856445,3.4210205-0.3062134
		c3.0185547-1.2300415,5.0473633-1.9710083,7.0032349-2.8707886c4.9023438-2.255249,9.7529907-4.6238403,14.6654663-6.8562622
		c1.5233765-0.6921997,3.1743774-1.1081543,4.7754517-1.6238403c2.2012329-0.7088013,4.390625-1.4655762,6.6206055-2.0706177
		c4.0651855-1.1027832,8.1712646-2.0554199,12.2322388-3.1722412c3.4423828-0.9467773,6.8569946-1.9996338,10.2616577-3.0760498
		c2.6081543-0.8245239,5.326416-2.5316162,6.4691162,1.326416c4.262207-2.3148804,7.9685059-5.8079224,11.9520264-6.1593628
		c6.706665-0.5917358,12.2781982-4.0762329,18.5985107-5.3742065c1.0701904-0.2197266,1.8621826-1.5636597,2.9229736-2.1209106
		c1.1348877-0.5960083,2.4761963-0.7862549,3.6536865-1.3168945c1.3795166-0.6219482,2.6038818-1.6818848,4.0279541-2.0947876
		c5.2767334-1.5303955,7.5391846-6.0352173,10.5374756-9.960144c1.9621582-2.5684814,4.3137207-5.1868896,7.0793457-6.7246094
		c6.6512451-3.6981812,13.3782959-8.1455078,21.5690918-5.8376465c1.4556885,0.4100952,2.9073486,2.9439697,3.2565918,4.7149048
		c0.6435547,3.2636108,1.3927002,5.2580566,5.3137207,3.8955078c0.9039307-0.314209,2.7801514,0.2543945,3.2097168,0.9957275
		c0.4891357,0.8444214-0.0955811,2.3451538-0.3123779,3.5427856c-0.0600586,0.3322754-0.647583,0.5771484-0.6920166,0.9030151
		c-0.3309326,2.4330444,0.1549072,5.3283691-1.0054932,7.2310791c-3.3458252,5.4863281-9.3706055,6.9265747-15.1170654,8.5785522
		c-2.7398682,0.7875977-5.4337158,1.7498779-8.1971436,2.4364624c-3.7822266,0.9397583-7.6314697,1.609314-11.4121094,2.5543213
		c-2.545166,0.6361694-5.0499268,1.4680786-7.5223389,2.3530884c-5.9136963,2.1165771-11.729126,4.5327148-17.7119141,6.4250488
		c-6.6828613,2.1137695-13.5090332,3.7741699-20.265625,5.6578979c-0.6876221,0.1915894-1.3436279,0.526001-1.9840088,0.8534546
		c-6.6694336,3.4113159-13.3840332,6.7399292-19.9696045,10.3065186c-2.2767334,1.2330933-4.1809692,3.135376-6.3377686,4.6114502
		c-5.3868408,3.6862183-10.8850098,7.2141724-16.1841431,11.0206299c-1.1063843,0.7947388-1.3619995,2.678894-2.3302002,3.7789307
		c-2.9881592,3.3950195-6.9827271,6.0214233-8.1394043,10.7756958c-0.4181519,1.7182007-0.6176147,3.4886475-0.9497681,5.2289429
		c-0.420166,2.2016602-0.8742065,4.3969727-1.3129272,6.5951538c-0.4091797,2.0500488-2.6596069,4.1512451,0.2062988,6.1286621
		c0.2505493,0.1729736,0.401123,0.9673462,0.2286377,1.206665c-3.5759277,4.9611816,1.7740479,9.1239624,1.3069458,13.9557495
		c-0.2177124,2.2515259,2.1657715,4.7546997,3.6207886,7.6409912c2.7677002-0.1269531,4.7269897,1.7197266,7.0193481,4.4882202
		c3.0020142,3.6253662,7.475708,6.1358643,11.5690308,8.7266235c4.7293091,2.9931641,9.710144,5.5947266,14.6339722,8.2704468
		c1.2998047,0.7062988,2.791748,1.0593262,4.3969727,1.6485596c-0.0467529,0.7561035-0.1057129,1.7084961-0.1623535,2.6204224
		c0.4128418,0.1401978,0.782959,0.3878784,0.9195557,0.2942505c2.6520996-1.8152466,4.0583496,0.482605,5.9659424,1.5962524
		c2.9509277,1.7226563,6.1185303,3.0740356,9.6582031,4.8104858c0.02771-0.1998901-0.1203613,0.8629761-0.2696533,1.9325562
		c6.2463379,0.7709961,12.3359375,1.3443604,16.6761475,6.4325562c0.1593018,0.1867065,0.5556641,0.3740234,0.7445068,0.3029175
		c4.723877-1.7781982,7.4162598,0.2630615,8.9143066,4.6557007c0.0722656,0.2120361,0.4250488,0.3789063,0.6816406,0.4703979
		c8.1165771,2.8924561,16.2374268,5.7730713,23.791626,9.3908081c3.0372314,1.9810791,6.0744629,3.9620972,9.1115723,5.9431152
		c2.7106934,0.862793,6.4002686-0.3048096,7.3356934,4.3902588c0.0230713,0.1157837,0.1481934,0.3032227,0.2258301,0.3032837
		c6.9753418,0.0106201,8.5793457,8.6246338,15.4836426,9.4887085c2.5782471,0.322876,4.6221924,4.3982544,7.0582275,6.5983276
		c1.1400146,1.0297852,2.604126,1.7206421,3.9713135,2.4749146c2.5042725,1.3816528,4.4921875,2.8566895,4.9057617,6.1826782
		c0.3494873,2.8133545,1.7999268,5.4899292,2.5031738,8.2940063c2.458374,4.6757813,8.1342773,5.9764404,10.2849121,12.0673828
		c1.5924072,4.508728,2.0137939,9.3103638,3.9492188,13.6724854c0.4086914,0.9216309-0.1656494,2.2319946-0.0325928,3.3323975
		c0.3464355,2.8613281,1.0753174,5.6951904,1.1973877,8.5593262c0.1213379,2.8436279-0.3741455,5.708313-0.4865723,8.5681152
		c-0.1955566,4.9734497,0.7391357,10.1473389-3.7554932,14.0963745c-0.8869629,0.7791748-0.4648438,2.9022827-0.9654541,4.2907715
		c-3.168335,8.7890625-7.4311523,16.9621582-13.7489014,23.9591675c-0.6486816,0.718689-1.2717285,1.6380005-1.4672852,2.5576782
		c-0.762207,3.5839844-2.3817139,5.6727905-5.2175293,4.3592529c-2.734375,3.3856812-5.1639404,6.1461182-7.3052979,9.1141968
		c-2.1358643,2.9605103-3.9764404,6.1334229-5.9593506,9.2050171c-0.7662354,1.1869507-1.3657227,2.5800781-2.3898926,3.484436
		c-3.4869385,3.0789185-7.1298828,5.9807129-10.710083,8.9539185c-0.2158203,0.1793213-0.5911865,0.4046631-0.5784912,0.5866089
		c0.4333496,6.223999-5.1453857,6.4537354-8.6477051,8.7855835c-1.00354,0.6682739-1.723877,1.7515869-2.6164551,2.5999146
		c-2.385376,2.2670288-4.7950439,4.5083618-7.1925049,6.7628174c-2.2320557,2.098999-5.6037598,3.8184204-6.4620361,6.3791504
		c-2.0211182,6.03125-6.9575195,5.713501-11.449585,6.7747803c-3.2561035,0.7694702-6.604248,1.3040771-9.7231445,2.4539185
		c-2.6293945,0.9693604-3.2166748,0.5916748-2.6785889-2.1312256c0.5922852-2.9981689,0.4874268-6.2162476,5.248291-5.3892212
		c1.7971191,0.3121948,7.8981934-6.6613159,7.5004883-8.6554565c-0.6038818-3.0276489,0.5307617-3.2342529,2.9147949-2.8809204
		C1077.5168457,926.0858154,1078.1622314,925.3580322,1079.2993164,924.6709595z"/>
	<path fill="#EBDDAB" d="M1488.6843262,1758.9952393c1.9851074-11.0699463,5.1776123-23.6008301,16.9293213-31.7724609
		c10.78479-7.4991455,21.3221436-4.4747314,26.5455322,7.4881592c6.1848145,14.1651611,2.6887207,26.1312256-10.3031006,34.645752
		c-3.3721924,2.2099609-6.8648682,4.4152832-10.5969238,5.8648682
		C1500.020874,1779.5869141,1488.7374268,1772.3497314,1488.6843262,1758.9952393z"/>
	<path fill="#EBDDAB" d="M418.8853455,1594.4078369c-0.0132141,12.0792236-4.9824829,16.3690186-13.6677856,17.0301514
		c-3.4288025,0.2608643-7.5513916-0.3272705-10.3904724-2.088501c-9.6365051-5.9780273-16.2594299-14.2962646-16.4319153-26.319458
		c-0.1271973-8.8607178,4.4607544-15.871582,11.7648621-18.4608154c7.2838745-2.5820313,16.5155029,0.4174805,21.6474609,7.1762695
		C416.8891602,1578.4382324,418.956543,1586.1068115,418.8853455,1594.4078369z"/>
	<path fill="#EBDDAB" d="M266.3660278,1487.4770508c0.2813416-6.4293213,2.3086548-11.9779053,8.4224243-15.0435791
		c6.0373535-3.0273438,11.4312439-1.1074219,16.5630188,2.6123047c4.5749207,3.31604,7.9523926,7.2619629,9.2566223,12.9758301
		c0.9238281,4.0469971,2.4703979,7.9603271,3.8571777,11.8914795c2.2637329,6.4178467-1.846344,14.7672119-8.563385,15.2939453
		c-4.9476624,0.3875732-11.0901184,0.1119385-14.8968811-2.4981689
		C272.5128784,1506.8864746,266.6390686,1498.5793457,266.3660278,1487.4770508z"/>
	<path fill="#EBDDAB" d="M275.8998718,1559.623291c-0.0671997,4.8140869-3.510376,8.286377-8.1647644,8.2330322
		c-5.1575012-0.0585938-11.3918457-7.4742432-11.3000488-13.4406738c0.0702515-4.5673828,3.4960022-7.9940186,7.9533997-7.9552002
		C269.9345398,1546.5083008,275.9862366,1553.4285889,275.8998718,1559.623291z"/>
	<path fill="#EBDDAB" d="M1638.8791504,1731.6956787c-0.0913086-6.041748,6.1015625-13.4613037,11.270752-13.5026855
		c4.3626709-0.0350342,7.9213867,3.4916992,8.0524902,7.9796143c0.1705322,5.8447266-6.1733398,13.2451172-11.4345703,13.3388672
		C1642.0273438,1739.5960693,1638.9526367,1736.5498047,1638.8791504,1731.6956787z"/>
</g>
</svg>
