<?xml version="1.0" encoding="utf-8"?>
<!-- Generator: Adobe Illustrator 24.0.3, SVG Export Plug-In . SVG Version: 6.00 Build 0)  -->
<svg version="1.1" id="Слой_1" xmlns="http://www.w3.org/2000/svg" xmlns:xlink="http://www.w3.org/1999/xlink" x="0px" y="0px"
	 viewBox="0 0 2000 480.1" style="enable-background:new 0 0 2000 480.1;" xml:space="preserve">
<style type="text/css">
	.st0{fill:#EBDDAB;}
</style>
<g id="Font">
	<rect x="306.1" y="58.4" class="st0" width="1375" height="5"/>
	<rect x="306.1" y="428.4" class="st0" width="1375" height="5"/>
	<g>
		<g>
			<g>
				<path class="st0" d="M141.1,177.5v-9.6h33.6v13.2h-2.4L141.1,177.5z M174.7,315.5v13.2h-33.6v-9.6l31.2-3.6H174.7z M163.9,242.3
					c0-24.7,0-49.7-0.7-74.4h23c-0.7,24.2-0.7,49.2-0.7,74.4v8.4c0,28.3,0,53.3,0.7,78h-23c0.7-24.2,0.7-49.2,0.7-74.4V242.3z
					 M174.7,240.1h23.8c29.5,0,42.2-9.4,42.2-31.4c0-22.1-12.7-29.8-37.4-29.8h-28.6v-11h35.5c32.9,0,52.1,16.3,52.1,39.4
					c0,18.7-13,35.3-44.9,39.1v-2.2c37.4,3.1,52.8,19.9,52.8,40.6c0,21.8-18,43.9-63.4,43.9h-32.2v-11h26.4
					c31.2,0,46.3-11.8,46.3-32.9c0-22.3-14.6-33.6-48.2-33.6h-24.5V240.1z"/>
				<path class="st0" d="M439.1,248.3c0,52.6-36,84-73.2,84s-73.4-29.3-73.4-84c0-52.6,36.5-84,73.4-84S439.1,193.6,439.1,248.3z
					 M365.9,320.3c33.8,0,48-36,48-72c0-36-14.2-72-48-72s-48.2,36-48.2,72C317.7,284.3,332.1,320.3,365.9,320.3z"/>
				<path class="st0" d="M460.2,319.1l25.2-3.6h4.8l27.6,3.6v9.6h-57.6V319.1z M475.4,175.3l14.9,5.8l-28.8-3.6v-9.6h36l99.6,137
					v25.4h-7.7L475.4,175.3z M480.6,167.9l12,9.6v151.2h-12V167.9z M559.8,167.9h57.6v9.6l-24,3.6h-4.8l-28.8-3.6V167.9z
					 M585.1,167.9h12v162.5l-12-12V167.9z"/>
				<path class="st0" d="M686.1,167.9c-0.7,24.2-0.7,49.2-0.7,74.4v38.2c0,26.9-0.5,39.1-2.9,51.4c-4.6,24-24.7,35.8-44.6,35.8
					c-8.9,0-18.2-2.4-20.4-11.5c1.4-8.6,7-11.5,14.4-11.5c6,0,11,1.9,17.8,7l7.9,6l-1.9,2.6l-1.9,0.2l-0.5-1.9
					c9.1-7,12.2-15.8,12.2-31c0-14.4-1.2-39.4-2.4-159.6H686.1z M638.6,167.9h69.6v9.6l-31.2,3.6h-4.8l-33.6-3.6V167.9z"/>
				<path class="st0" d="M874.7,248.3c0,52.6-36,84-73.2,84s-73.4-29.3-73.4-84c0-52.6,36.5-84,73.4-84S874.7,193.6,874.7,248.3z
					 M801.5,320.3c33.8,0,48-36,48-72c0-36-14.2-72-48-72s-48.2,36-48.2,72C753.3,284.3,767.7,320.3,801.5,320.3z"/>
				<path class="st0" d="M895.8,177.5v-9.6H963v9.6l-31.2,3.6H927L895.8,177.5z M977.9,315.5c27.6,0,41.5-15.6,41.5-58.6v-89h12
					v95.3c0,50.4-24.5,69.1-56.9,69.1c-34.8,0-58.3-19.4-58.3-64.1v-25.9c0-24.7,0-49.7-0.7-74.4h23c-0.7,24.2-0.7,49.2-0.7,74.4v19
					C937.8,302.5,953.4,315.5,977.9,315.5z M1021.1,181.1l-26.4-3.6v-9.6h57.6v9.6l-26.4,3.6H1021.1z"/>
				<path class="st0" d="M1071.5,177.5v-9.6h33.6v13.2h-2.4L1071.5,177.5z M1107.5,315.5l31.2,3.6v9.6h-67.2v-9.6l31.2-3.6H1107.5z
					 M1094.3,242.3c0-24.7,0-49.7-0.7-74.4h23c-0.7,25-0.7,48.5-0.7,76.8v7.2c0,27.1,0,52.1,0.7,76.8h-23
					c0.7-24.2,0.7-49.2,0.7-74.4V242.3z M1105.1,243.5h30c25.9,0,38.4-13.9,38.4-33.4c0-20.2-10.8-31.2-35.8-31.2h-32.6v-11h32.9
					c36.7,0,58.3,15.6,58.3,42.2c0,20.4-16.1,38.9-47.5,41.5l0.7-1.9c17.3,1.7,27.8,9.6,34.3,31.2l11.8,39.8l-7.4-4.6l24.7,2.9v9.6
					c-4.3,1.4-10.1,2.4-17.3,2.4c-14.9,0-21.4-3.8-24.2-14.9l-9.8-39.1c-4.8-19.4-13.7-22.8-33.6-22.8h-22.8V243.5z"/>
				<path class="st0" d="M1409,304.9v13.2l-14.9,3.4l6-35.5h14.6l-1,34.8c-15.1,8.2-31.7,11.5-48.5,11.5c-48.5,0-81.1-35-81.1-84
					c0-48,34.1-84,80.9-84c13,0,30,2.2,46.3,11.5l1,34.8h-14.6l-6-35.5l14.9,3.4v14.6c-13.7-12.7-27.1-16.8-38.6-16.8
					c-32.4,0-58.6,25.2-58.6,72c0,46.8,23.5,72,56.9,72C1379.9,320.3,1395.3,316.2,1409,304.9z"/>
				<path class="st0" d="M1425.5,319.1l24-3.6h4.8l26.4,3.6v9.6h-55.2V319.1z M1497,166.7h14.4l55.2,162h-22.3l-48.2-143.8h5.5
					l-49,143.8h-11.3L1497,166.7z M1468.9,265.1h64.8l3.8,11h-72.5L1468.9,265.1z M1516.2,319.1l30.2-3.6h4.8l29.8,3.6v9.6h-64.8
					V319.1z"/>
				<path class="st0" d="M1594.2,177.5v-9.6h33.6v13.2h-2.4L1594.2,177.5z M1630.2,315.5l31.2,3.6v9.6h-67.2v-9.6l31.2-3.6H1630.2z
					 M1617,242.3c0-24.7,0-49.7-0.7-74.4h23c-0.7,24.2-0.7,49.2-0.7,74.4v9.1c0,27.6,0,52.6,0.7,77.3h-23
					c0.7-24.2,0.7-49.2,0.7-74.4V242.3z M1694.3,167.9l10.8,12h-77.3v-12h85.7l1.7,42.7h-13.4L1694.3,167.9z M1684,252.1h-56.2v-11
					h56.2V252.1z M1676.3,243.5l3.6-25.4h10.8v59.3h-10.8l-3.6-26.6V243.5z"/>
				<path class="st0" d="M1733.2,177.5v-9.6h33.6v13.2h-2.4L1733.2,177.5z M1766.8,315.5v13.2h-33.6v-9.6l31.2-3.6H1766.8z
					 M1756,242.3c0-24.7,0-49.7-0.7-74.4h23c-0.7,24.2-0.7,49.2-0.7,74.4v9.1c0,27.6,0,52.6,0.7,77.3h-23
					c0.7-24.2,0.7-49.2,0.7-74.4V242.3z M1833.3,167.9l10.8,12h-77.3v-12h85.7l1.7,42.7h-13.4L1833.3,167.9z M1821,252.1h-54.2v-11
					h54.2V252.1z M1858.9,286l-1.7,42.7h-90.5v-12h82.1l-10.8,12l7.4-42.7H1858.9z M1813.3,243.5l3.6-25.4h10.8v56.9h-10.8
					l-3.6-26.6V243.5z"/>
			</g>
		</g>
		<polygon class="st0" points="1790.8,112.3 1773.4,151.1 1818.4,111.4 		"/>
	</g>
</g>
</svg>
