<?xml version="1.0" encoding="utf-8"?>
<!-- Generator: Adobe Illustrator 23.1.0, SVG Export Plug-In . SVG Version: 6.00 Build 0)  -->
<svg version="1.1" id="Слой_1" xmlns="http://www.w3.org/2000/svg" xmlns:xlink="http://www.w3.org/1999/xlink" x="0px" y="0px"
	 viewBox="0 0 500 500" style="enable-background:new 0 0 500 500;" xml:space="preserve">
<style type="text/css">
	.st0{fill:#EBDDAB;}
</style>
<path class="st0" d="M151.9,24.7c-14,0-26.3,9.5-29.8,23.1l-2,7.6h259.4l-1.9-7.5c-3.4-13.7-15.7-23.3-29.8-23.3H151.9z M116.8,75.9
	c-34.2,0-40,30.8-41,51.2c0,5.7,4.6,10.2,10.2,10.2h327.7c5.7,0,10.2-4.6,10.2-10.2c-0.9-20.4-6.7-51.2-41-51.2H116.8z M98.8,157.8
	L137,455.3c1.7,11.2,12.5,20,24.5,20h176.8c12,0,22.8-8.8,24.5-20.3l11.8-92.4L401,157.8H98.8z M249,198.8c0.5-0.1,0.5,0,0.7,0
	c29.6,0,54.5,20.7,65.7,51.2h1h52.1l-9.2,71.7h-42.6h-1.4c-2.4,6.7-5.3,13.1-9,18.9c-13.2,20.3-33.5,32.1-55.5,32.3h-0.7
	c-21.7,0-41.9-11.3-55.5-31.1c-4.1-6-7.3-12.9-9.9-20.1h-1.2h-43l-9.2-71.7h51.9h1.1C195.1,219.8,219.6,199.1,249,198.8z
	 M249.4,239.8c-17,0.2-30.5,21-30.3,46.4c0.3,25.4,14.3,45.9,31.3,45.7c17-0.2,30.6-20.9,30.3-46.4c0,0,0,0,0,0
	C280.4,260.1,266.4,239.6,249.4,239.8C249.4,239.8,249.4,239.8,249.4,239.8z"/>
</svg>
