<?xml version="1.0" encoding="utf-8"?>
<!-- Generator: Adobe Illustrator 23.1.0, SVG Export Plug-In . SVG Version: 6.00 Build 0)  -->
<svg version="1.1" id="_x32_" xmlns="http://www.w3.org/2000/svg" xmlns:xlink="http://www.w3.org/1999/xlink" x="0px" y="0px"
	 viewBox="0 0 500 500" style="enable-background:new 0 0 500 500;" xml:space="preserve">
<style type="text/css">
	.st0{fill:#EBDDAB;}
</style>
<g>
	<polygon class="st0" points="98.3,424.5 129.2,457 241.5,350.4 208.9,319.4 	"/>
	<path class="st0" d="M475,97.8c-31.5-33.2-90.3-28.6-127.8,7c-22.8,21.7-32.8,51.5-32.8,76.5c-0.1,22-1.8,37.1-18.9,56l-22.3,21.2
		l32.6,30.9l20.7-19.6c19.7-16,34.9-17,56.9-16c25,1.2,55.3-7.2,78.1-28.8C498.9,189.4,506.5,131,475,97.8z"/>
	<path class="st0" d="M214,194.2c2.1-23.5,1-40-33.1-72.2c0,0-39.2-37.2-61.3-58.2C101,46.2,74.8,72.6,93.7,90.6l64.2,61
		c4.1,3.9,4.3,10.4,0.4,14.5l-1.9,2c-3.9,4.1-10.4,4.3-14.5,0.4l-64.5-61.2c-10.6-10.1-20.5-5.9-27,0.9c-6.5,6.8-10.1,16.9,0.5,27
		l64.5,61.2c4.1,3.9,4.3,10.4,0.4,14.5l-1.9,2c-3.9,4.1-10.4,4.3-14.5,0.4l-64.2-61c-19-18-44,9.6-25.4,27.2
		c22.1,21.1,61.3,58.2,61.3,58.2c33.9,32.5,50.5,32.7,73.9,29.3c18.8-2.7,32.5-7.3,53.7,12.8L385.4,457l30.9-32.5L229.6,247.2
		C208.4,227,212.3,213.1,214,194.2z"/>
</g>
</svg>
