<?xml version="1.0" encoding="utf-8"?>
<!-- Generator: Adobe Illustrator 23.1.0, SVG Export Plug-In . SVG Version: 6.00 Build 0)  -->
<svg version="1.1" id="Layer_1" xmlns="http://www.w3.org/2000/svg" xmlns:xlink="http://www.w3.org/1999/xlink" x="0px" y="0px"
	 viewBox="0 0 500 500" style="enable-background:new 0 0 500 500;" xml:space="preserve">
<style type="text/css">
	.st0{fill:#EBDDAB;}
</style>
<g>
	<g>
		<path class="st0" d="M182.1,58.8c-31.5,22.9-59.1,51.2-82.1,84.3c-23,33.1-40.1,68.8-50.6,106.3c-2.4,8.3-2.9,17.2-1.4,25.8
			c0.4,2.1,0.9,4.1,1.5,6l253.7,33.2c1.4-1.6,2.6-3.3,3.9-5c1.1-1.6,2.2-3.4,3.2-5.1c0-0.1,0.1-0.1,0.1-0.2
			c1.8-3.3,4.4-7.1,6.7-10.4c2.3-3.3,5-6.8,7.7-10.2c1.3-1.5,2.5-3.1,3.6-4.7c1.2-1.7,2.2-3.4,3.2-5.1L211.8,47.8
			C201.4,48.4,191,52.2,182.1,58.8z"/>
	</g>
</g>
<g>
	<g>
		<path class="st0" d="M310.5,35.9c-21.6,3.6-43.2,10.1-64.3,19.6l93.2,175.9c1.5-1.1,3-2,4.4-2.9c0.1,0,0.1-0.1,0.2-0.1
			c2.3-1.5,4.5-3.1,6.5-4.9L334.4,38C327,35.3,318.8,34.6,310.5,35.9z"/>
	</g>
</g>
<g>
	<g>
		<path class="st0" d="M68.4,310.7c-1.5,21.6-0.4,42.7,3.2,62.8l0.7,4.1c0,0.2,0.1,0.3,0.1,0.5c1.8,8.3,5.3,15.6,10.3,21.5
			l180.1-49.9c0.9-2.5,1.6-5,2.2-7.6c0.5-1.9,0.9-3.7,1.4-5.4L68.4,310.7z"/>
	</g>
</g>
<g>
	<g>
		<path class="st0" d="M120.6,416.8c12.6,23.7,30.3,44,51.6,59.1c0,0,0.1,0,0.1,0.1l0.4,0.3c0.6,0.4,1.2,0.8,1.8,1.1
			c13.3,6.4,28.7,5.5,41.4-2.6c5.4-3.4,9.9-7.7,13.5-12.9c7.5-10.8,9.8-23.8,6.4-35.7c-1.1-4.4-2.2-8.6-2.9-12.4
			c-1.6-9.2-2.5-18.3-2.6-27.3L120.6,416.8z"/>
	</g>
</g>
<g>
	<g>
		<path class="st0" d="M363.8,67.6l9.7,112.9c13.3-4.6,26.5-7.6,39.3-8.9c11.8-1.1,22.5-7.1,30.2-17c0.1-0.1,0.2-0.2,0.2-0.3
			c0.3-0.4,0.6-0.8,0.8-1.2c7.2-10.3,10.2-22.6,8.2-33.7c-1.7-9.6-7.2-18.2-14.9-23.6l-0.4-0.3C415.6,80.7,391,71.3,363.8,67.6z"/>
	</g>
</g>
</svg>
